<?xml version="1.0" encoding="UTF-8"?>
<!-- Generator: visioncortex VTracer 0.6.3 -->
<svg version="1.1" xmlns="http://www.w3.org/2000/svg" width="1280" height="1280">
<path d="M0 0 C3.69 2.68 6.62 5.83 9.49 9.36 C10.96 11.2 10.96 11.2 12.6 12.78 C20.42 20.65 22.15 33.91 22.12 44.44 C22.13 45.66 22.13 46.88 22.13 48.14 C22 51.19 22 51.19 21 53.19 C20.34 53.19 19.68 53.19 19 53.19 C19.09 54.98 19.09 54.98 19.19 56.81 C19.21 60.92 18.13 63.64 16 67.19 C15.67 66.53 15.34 65.87 15 65.19 C14.01 65.19 13.02 65.19 12 65.19 C12 66.18 12 67.17 12 68.19 C12.66 68.52 13.32 68.85 14 69.19 C12.51 71.66 12.51 71.66 11 74.19 C10.34 73.53 9.68 72.87 9 72.19 C8.67 72.52 8.34 72.85 8 73.19 C8.66 74.18 9.32 75.17 10 76.19 C9.34 76.19 8.68 76.19 8 76.19 C7.73 76.83 7.46 77.47 7.19 78.12 C6 80.19 6 80.19 3 81.19 C2.67 81.85 2.34 82.51 2 83.19 C1.67 83.85 1.34 84.51 1 85.19 C-0.49 85.68 -0.49 85.68 -2 86.19 C-2.33 86.85 -2.66 87.51 -3 88.19 C-3.33 88.85 -3.66 89.51 -4 90.19 C-5.49 90.68 -5.49 90.68 -7 91.19 C-7.33 91.85 -7.66 92.51 -8 93.19 C-8.33 93.85 -8.66 94.51 -9 95.19 C-10.49 95.68 -10.49 95.68 -12 96.19 C-12.33 96.85 -12.66 97.51 -13 98.19 C-13.33 98.85 -13.66 99.51 -14 100.19 C-15.49 100.68 -15.49 100.68 -17 101.19 C-17.33 101.85 -17.66 102.51 -18 103.19 C-18.33 103.85 -18.66 104.51 -19 105.19 C-20.49 105.68 -20.49 105.68 -22 106.19 C-22.33 106.85 -22.66 107.51 -23 108.19 C-23.33 108.85 -23.66 109.51 -24 110.19 C-25.49 110.68 -25.49 110.68 -27 111.19 C-27.73 113.2 -27.73 113.2 -28 115.19 C-26.51 114.2 -26.51 114.2 -25 113.19 C-23.68 113.19 -22.36 113.19 -21 113.19 C-20.67 112.53 -20.34 111.87 -20 111.19 C-19.01 111.52 -18.02 111.85 -17 112.19 C-17 111.53 -17 110.87 -17 110.19 C-15.68 110.19 -14.36 110.19 -13 110.19 C-12.67 109.2 -12.34 108.21 -12 107.19 C-11.34 108.18 -10.68 109.17 -10 110.19 C-10 109.53 -10 108.87 -10 108.19 C-8.55 107.72 -8.55 107.72 -7.06 107.25 C-4.16 106.49 -4.16 106.49 -3 105.19 C-1.33 105.15 0.33 105.14 2 105.19 C2 104.53 2 103.87 2 103.19 C3.39 103 3.39 103 4.81 102.81 C8.14 102.37 8.14 102.37 11 100.19 C11 100.85 11 101.51 11 102.19 C11.66 101.53 12.32 100.87 13 100.19 C15.13 99.62 17.28 99.13 19.44 98.69 C23.3 97.89 25.7 97.39 29 95.19 C29.33 95.52 29.66 95.85 30 96.19 C30 95.86 30 95.53 30 95.19 C32.31 95.19 34.62 95.19 37 95.19 C37.33 94.53 37.66 93.87 38 93.19 C40.4 92.52 40.4 92.52 43.38 92 C44.35 91.82 45.33 91.64 46.34 91.46 C49 91.19 49 91.19 52 92.19 C52 91.53 52 90.87 52 90.19 C53.7 89.97 53.7 89.97 55.44 89.75 C58.81 89.58 58.81 89.58 60 88.19 C63.42 87.71 66.84 87.31 70.27 86.94 C73.94 86.82 73.94 86.82 77 85.19 C79.33 85.15 81.67 85.15 84 85.19 C84 84.53 84 83.87 84 83.19 C84.96 83.47 84.96 83.47 85.94 83.75 C86.62 83.89 87.3 84.04 88 84.19 C88.33 83.86 88.66 83.53 89 83.19 C92.43 82.95 95.84 82.79 99.27 82.67 C101.19 82.58 103.1 82.39 105 82.19 C105.33 81.53 105.66 80.87 106 80.19 C106 80.85 106 81.51 106 82.19 C106.64 81.87 107.28 81.55 107.93 81.22 C111.99 79.85 115.8 79.77 120.06 79.62 C121.66 79.56 123.25 79.5 124.85 79.43 C125.55 79.41 126.25 79.39 126.97 79.36 C129.07 79.18 130.97 78.72 133 78.19 C133.66 78.19 134.32 78.19 135 78.19 C137.03 78.12 139.06 78.04 141.09 77.97 C165.46 77.09 189.63 77.28 214 78.19 C214 78.85 214 79.51 214 80.19 C215.09 80.15 216.19 80.12 217.31 80.08 C229.99 79.82 242.22 81.1 254.76 82.91 C257.12 83.25 257.12 83.25 260 83.19 C260 83.85 260 84.51 260 85.19 C260.85 85.18 261.71 85.16 262.59 85.15 C264.25 85.14 264.25 85.14 265.94 85.12 C267.04 85.11 268.14 85.1 269.28 85.09 C272 85.19 272 85.19 273 86.19 C276.36 86.72 279.72 87.15 283.09 87.59 C284.05 87.79 285.01 87.98 286 88.19 C286.33 88.85 286.66 89.51 287 90.19 C290.3 90.19 293.6 90.19 297 90.19 C297 90.85 297 91.51 297 92.19 C297.91 92.26 297.91 92.26 298.84 92.34 C305 92.89 310.96 93.86 317 95.19 C317 95.85 317 96.51 317 97.19 C317.89 97.17 318.77 97.15 319.69 97.12 C324.46 97.21 327.78 98.08 332 100.19 C332.99 100.19 333.98 100.19 335 100.19 C335 100.85 335 101.51 335 102.19 C336.26 102.46 337.52 102.72 338.81 103 C346.84 104.8 354.47 106.84 362 110.19 C364.31 110.99 366.62 111.75 368.95 112.51 C372.81 113.78 376.48 115.4 380.19 117.06 C383.45 118.53 386.73 119.89 390.06 121.19 C393.08 122.38 395.99 123.64 398.88 125.12 C405.01 128.29 411.45 131 418 133.19 C418 133.85 418 134.51 418 135.19 C419.1 135.62 419.1 135.62 420.23 136.05 C433.61 141.52 446.92 148.94 458.81 157.12 C463.39 160.09 468.19 162.62 473 165.19 C473 165.85 473 166.51 473 167.19 C473.73 167.45 474.46 167.72 475.21 168 C477.96 169.17 480.18 170.54 482.62 172.25 C485.17 174.03 487.03 175.2 490 176.19 C491.67 177.85 493.34 179.52 495 181.19 C497.5 183.23 500.09 185.15 502.69 187.06 C503.4 187.59 504.1 188.12 504.83 188.66 C508.7 191.54 512.62 194.31 516.62 197 C520.27 199.5 522.9 202.17 525.63 205.62 C527.73 208.03 530.28 209.55 533 211.19 C533.99 211.85 534.98 212.51 536 213.19 C536 213.85 536 214.51 536 215.19 C536.66 215.19 537.32 215.19 538 215.19 C538 215.85 538 216.51 538 217.19 C538.84 217.53 538.84 217.53 539.69 217.88 C542.65 219.55 544.62 221.76 547 224.19 C548.1 225.09 549.2 225.99 550.31 226.88 C551.2 227.64 552.09 228.4 553 229.19 C553 229.85 553 230.51 553 231.19 C553.66 231.19 554.32 231.19 555 231.19 C556.63 232.93 558.08 234.79 559.56 236.66 C560.04 237.16 560.51 237.67 561 238.19 C561.66 238.19 562.32 238.19 563 238.19 C563.38 238.85 563.76 239.52 564.14 240.21 C566.74 244.38 570.16 247.48 573.69 250.88 C575.07 252.21 576.45 253.54 577.82 254.89 C578.43 255.47 579.04 256.06 579.67 256.66 C581 258.19 581 258.19 581 260.19 C581.66 260.19 582.32 260.19 583 260.19 C583 260.85 583 261.51 583 262.19 C583.99 262.19 584.98 262.19 586 262.19 C586.42 263.04 586.42 263.04 586.85 263.91 C589.52 269.05 592.34 272.89 596.64 276.78 C598 278.19 598 278.19 598 280.19 C598.99 280.52 599.98 280.85 601 281.19 C602.39 282.75 602.39 282.75 603.69 284.62 C604.12 285.24 604.56 285.86 605.01 286.5 C606 288.19 606 288.19 606 290.19 C606.66 290.19 607.32 290.19 608 290.19 C608.58 291.26 609.15 292.33 609.75 293.44 C611.1 295.83 612.19 297.37 614.19 299.31 C616 301.19 616 301.19 616.5 303.81 C616.75 304.99 616.75 304.99 617 306.19 C618.97 307.55 618.97 307.55 621 308.19 C621 308.85 621 309.51 621 310.19 C621.66 310.19 622.32 310.19 623 310.19 C623.66 312.17 624.32 314.15 625 316.19 C625.66 316.19 626.32 316.19 627 316.19 C628.46 318.83 629 320.08 629 323.19 C629.9 323.5 629.9 323.5 630.81 323.81 C633.88 325.74 634.64 327.88 636 331.19 C636.14 332.1 636.29 333 636.44 333.94 C636.62 334.68 636.81 335.42 637 336.19 C637.66 336.52 638.32 336.85 639 337.19 C639.66 337.52 640.32 337.85 641 338.19 C641.75 340.81 641.75 340.81 642 343.19 C642.66 343.19 643.32 343.19 644 343.19 C648.26 350.59 652.5 358 656.55 365.52 C657.58 367.41 658.63 369.3 659.7 371.17 C660.53 372.63 660.53 372.63 661.38 374.12 C662.13 375.44 662.13 375.44 662.9 376.78 C664 379.19 664 379.19 664 383.19 C664.66 383.19 665.32 383.19 666 383.19 C669 389.81 669 389.81 669 393.19 C669.66 393.19 670.32 393.19 671 393.19 C672.01 395.24 673.01 397.31 674 399.38 C674.84 401.1 674.84 401.1 675.69 402.86 C676.92 405.98 677.3 407.89 677 411.19 C677.66 411.19 678.32 411.19 679 411.19 C679 412.84 679 414.49 679 416.19 C679.66 416.19 680.32 416.19 681 416.19 C681.35 417.03 681.7 417.87 682.06 418.74 C682.74 420.39 682.74 420.39 683.44 422.06 C683.89 423.15 684.34 424.24 684.81 425.37 C685.5 426.99 686.21 428.61 687 430.19 C687.04 432.19 687.04 434.19 687 436.19 C687.99 436.52 688.98 436.85 690 437.19 C689.67 438.51 689.34 439.83 689 441.19 C689.66 441.19 690.32 441.19 691 441.19 C691.49 442.67 691.49 442.67 691.99 444.19 C694.62 452.27 694.62 452.27 697.56 460.25 C699.45 465.12 700.74 470.18 702.13 475.21 C702.87 478.08 702.87 478.08 704 480.19 C704.13 482.86 704.04 485.51 704 488.19 C704.66 488.19 705.32 488.19 706 488.19 C707.47 493.42 708.93 498.66 710.37 503.9 C710.9 505.83 711.45 507.77 712 509.7 C713.71 515.99 714.39 521.67 714 528.19 C714.66 528.19 715.32 528.19 716 528.19 C716.2 529.58 716.2 529.58 716.4 531 C716.58 532.19 716.76 533.39 716.94 534.62 C717.2 536.42 717.2 536.42 717.46 538.25 C717.69 541.07 717.69 541.07 719 542.19 C719.29 545.16 719.45 548.13 719.62 551.11 C720 554.16 720.86 556.36 722 559.19 C722.26 561.22 722.44 563.27 722.56 565.31 C722.76 568.56 722.97 571.09 724 574.19 C724.08 575.67 724.11 577.15 724.1 578.64 C724.09 579.91 724.09 579.91 724.09 581.21 C724.08 582.09 724.07 582.97 724.06 583.88 C724.06 584.77 724.05 585.66 724.05 586.58 C724.04 588.78 724.02 590.99 724 593.19 C724.66 593.19 725.32 593.19 726 593.19 C726.98 596.52 727.18 599.63 727.28 603.09 C727.32 604.23 727.36 605.37 727.39 606.54 C727.43 607.72 727.46 608.91 727.5 610.12 C727.57 612.47 727.64 614.81 727.72 617.15 C727.75 618.19 727.78 619.23 727.81 620.3 C727.92 623.11 727.92 623.11 728.5 625.48 C729.06 628.53 729.13 631.37 729.13 634.47 C729.13 636.35 729.13 636.35 729.14 638.26 C729.14 639.61 729.14 640.96 729.13 642.32 C729.13 643.71 729.13 645.11 729.14 646.5 C729.14 649.42 729.14 652.34 729.13 655.26 C729.12 659 729.13 662.74 729.13 666.48 C729.14 669.36 729.14 672.24 729.13 675.12 C729.13 676.49 729.13 677.87 729.14 679.25 C729.14 681.18 729.13 683.1 729.13 685.03 C729.13 686.67 729.13 686.67 729.13 688.35 C729.02 690.82 728.67 692.82 728 695.19 C727.88 696.92 727.8 698.66 727.75 700.4 C727.72 701.4 727.69 702.39 727.65 703.42 C727.59 705.51 727.54 707.59 727.48 709.68 C727.3 714.95 726.81 719.19 725 724.19 C724.67 727.48 724.49 730.75 724.35 734.06 C724.09 739.1 724.09 739.1 723 740.19 C722.63 742.67 722.29 745.14 722 747.62 C721.13 754.92 721.13 754.92 720 757.19 C719.81 759.11 719.81 759.11 719.62 761.06 C719.04 766.92 717.53 772.51 716 778.19 C715.34 778.19 714.68 778.19 714 778.19 C714.06 779.32 714.12 780.46 714.19 781.62 C714.17 785.58 713.35 788.6 711.99 792.29 C710.36 797.05 709.15 801.93 707.89 806.8 C706.75 811.07 705.42 814.45 703 818.19 C702.28 820.5 701.6 822.84 701 825.19 C700.34 825.19 699.68 825.19 699 825.19 C699.33 826.51 699.66 827.83 700 829.19 C699.01 829.52 698.02 829.85 697 830.19 C697.02 831.14 697.04 832.09 697.06 833.06 C697 836.19 697 836.19 696 838.19 C695.34 838.19 694.68 838.19 694 838.19 C693.81 839.27 693.81 839.27 693.62 840.38 C693.01 843.14 692.12 845.58 691 848.19 C690.34 848.19 689.68 848.19 689 848.19 C689 849.84 689 851.49 689 853.19 C688.34 853.19 687.68 853.19 687 853.19 C686.9 854.28 686.79 855.37 686.69 856.5 C685.98 860.31 685.71 860.8 683 863.19 C681.81 865.79 681.81 865.79 681 868.19 C680.34 868.19 679.68 868.19 679 868.19 C678.81 869.27 678.81 869.27 678.62 870.38 C678.01 873.14 677.12 875.58 676 878.19 C675.34 878.19 674.68 878.19 674 878.19 C673.88 879.24 673.88 879.24 673.75 880.31 C672.83 883.84 671.12 886.25 669 889.19 C668.01 888.86 667.02 888.53 666 888.19 C665.67 888.85 665.34 889.51 665 890.19 C665.66 890.19 666.32 890.19 667 890.19 C665.67 893.81 664.06 896.82 661.88 900 C661.34 900.79 660.8 901.58 660.24 902.39 C659.63 903.28 659.63 903.28 659 904.19 C658.01 903.86 657.02 903.53 656 903.19 C655.67 903.85 655.34 904.51 655 905.19 C655.66 905.19 656.32 905.19 657 905.19 C655.68 909.87 652.9 912.75 649.66 916.22 C648.05 918.13 647.01 919.91 646 922.19 C645.67 921.53 645.34 920.87 645 920.19 C644.01 920.19 643.02 920.19 642 920.19 C642.66 921.51 643.32 922.83 644 924.19 C643.47 924.68 642.94 925.18 642.39 925.69 C641.68 926.37 640.98 927.05 640.25 927.75 C639.21 928.74 639.21 928.74 638.14 929.75 C635.86 932.16 635.86 932.16 634.31 935.37 C631.81 939.82 628.43 943.19 624.82 946.77 C624.13 947.46 623.44 948.15 622.73 948.87 C621.27 950.32 619.82 951.77 618.36 953.22 C616.13 955.43 613.92 957.66 611.71 959.89 C610.29 961.31 608.87 962.72 607.45 964.14 C606.79 964.8 606.13 965.47 605.46 966.15 C601.85 969.7 598.67 972.08 594 974.19 C591.57 976.42 589.31 978.75 587.06 981.16 C584.25 984.1 581.54 986.22 578 988.19 C577.13 988.91 576.27 989.63 575.38 990.38 C573 992.19 573 992.19 570 992.19 C569.77 992.76 569.55 993.34 569.31 993.94 C566.72 998.38 562.31 1000.62 558 1003.19 C557.34 1003.85 556.68 1004.51 556 1005.19 C552.88 1005.31 552.88 1005.31 550 1005.19 C550 1006.51 550 1007.83 550 1009.19 C549.09 1009.62 548.18 1010.05 547.25 1010.5 C544.07 1012.03 544.07 1012.03 541.81 1013.88 C540 1015.19 540 1015.19 537 1015.19 C537 1015.85 537 1016.51 537 1017.19 C535.89 1017.59 535.89 1017.59 534.75 1018 C532.09 1019.15 530.3 1020.45 528 1022.19 C526.52 1023.11 525.02 1024.01 523.5 1024.88 C522.75 1025.31 521.99 1025.75 521.22 1026.2 C519 1027.19 519 1027.19 515 1027.19 C514.67 1028.18 514.34 1029.17 514 1030.19 C510.68 1031.89 508.82 1032.19 505 1032.19 C504.67 1033.18 504.34 1034.17 504 1035.19 C500.68 1036.89 498.82 1037.19 495 1037.19 C494.67 1038.18 494.34 1039.17 494 1040.19 C492.25 1040.81 492.25 1040.81 490 1041.19 C489.09 1041.37 488.18 1041.56 487.25 1041.75 C486.51 1041.89 485.76 1042.04 485 1042.19 C484.67 1043.18 484.34 1044.17 484 1045.19 C478.74 1047.82 472.76 1049.14 467 1050.19 C467 1050.85 467 1051.51 467 1052.19 C466.1 1052.48 466.1 1052.48 465.17 1052.77 C464.37 1053.03 463.57 1053.29 462.75 1053.56 C461.96 1053.82 461.17 1054.07 460.36 1054.34 C458.01 1055.13 458.01 1055.13 455.91 1056.23 C454 1057.19 454 1057.19 450.62 1058.12 C447 1059.05 447 1059.05 443.94 1060.81 C440.69 1062.33 438.54 1062.44 435 1062.19 C435 1061.53 435 1060.87 435 1060.19 C434.01 1061.18 433.02 1062.17 432 1063.19 C432.66 1063.52 433.32 1063.85 434 1064.19 C433.01 1064.46 432.02 1064.72 431 1065 C428.23 1065.79 425.56 1066.71 422.88 1067.75 C419.93 1068.88 417.12 1069.65 414 1070.19 C413.01 1070.52 412.02 1070.85 411 1071.19 C411 1071.52 411 1071.85 411 1072.19 C409.08 1072.37 409.08 1072.37 407.12 1072.56 C403.65 1072.88 403.65 1072.88 401 1075.19 C399.01 1075.56 397.01 1075.89 395 1076.19 C394.34 1076.52 393.68 1076.85 393 1077.19 C390.33 1077.32 387.68 1077.23 385 1077.19 C385 1077.85 385 1078.51 385 1079.19 C382.69 1079.87 380.87 1080.18 378.44 1080.12 C375.74 1079.98 375.74 1079.98 373 1082.19 C370.96 1082.38 370.96 1082.38 368.81 1082.31 C367.55 1082.27 366.3 1082.23 365 1082.19 C365 1082.85 365 1083.51 365 1084.19 C361.85 1085.24 359.61 1085.29 356.31 1085.25 C355.32 1085.24 354.32 1085.23 353.3 1085.22 C352.54 1085.21 351.78 1085.2 351 1085.19 C350.67 1085.85 350.34 1086.51 350 1087.19 C346.7 1087.19 343.4 1087.19 340 1087.19 C340 1087.85 340 1088.51 340 1089.19 C336.05 1090.37 332.43 1090.18 328.34 1090.03 C325.73 1090.01 325.73 1090.01 323 1092.19 C319.86 1092.38 319.86 1092.38 316.31 1092.31 C315.13 1092.29 313.95 1092.28 312.74 1092.26 C311.38 1092.22 311.38 1092.22 310 1092.19 C310 1092.85 310 1093.51 310 1094.19 C305.55 1095.66 300.93 1095.2 296.31 1095.06 C294.54 1095.03 292.77 1095.1 291 1095.19 C290.34 1095.85 289.68 1096.51 289 1097.19 C286.75 1097.41 286.75 1097.41 283.99 1097.38 C283.01 1097.38 282.02 1097.37 281 1097.36 C279.97 1097.35 278.94 1097.33 277.88 1097.31 C276.83 1097.3 275.79 1097.29 274.72 1097.29 C272.15 1097.26 269.57 1097.23 267 1097.19 C267 1097.85 267 1098.51 267 1099.19 C263.83 1100.24 261.67 1100.27 258.34 1100.21 C256.69 1100.2 256.69 1100.2 255 1100.18 C252.67 1100.14 250.33 1100.1 248 1100.06 C246.9 1100.05 245.79 1100.04 244.66 1100.03 C243.64 1100.01 242.63 1099.99 241.59 1099.98 C238.76 1100 238.76 1100 236 1102.19 C233.7 1102.44 233.7 1102.44 230.95 1102.44 C229.91 1102.45 228.87 1102.45 227.79 1102.46 C226.65 1102.45 225.5 1102.45 224.32 1102.45 C223.12 1102.45 221.91 1102.45 220.67 1102.46 C217.37 1102.46 214.06 1102.46 210.76 1102.46 C207.3 1102.45 203.84 1102.46 200.38 1102.46 C194.57 1102.46 188.77 1102.46 182.96 1102.45 C176.24 1102.44 169.53 1102.44 162.81 1102.45 C157.05 1102.46 151.28 1102.46 145.52 1102.46 C142.08 1102.45 138.63 1102.45 135.19 1102.46 C131.35 1102.47 127.51 1102.46 123.68 1102.45 C122.53 1102.45 121.39 1102.45 120.21 1102.46 C119.17 1102.45 118.12 1102.45 117.05 1102.44 C116.14 1102.44 115.23 1102.44 114.3 1102.44 C112 1102.19 112 1102.19 109 1100.19 C106.24 1099.93 106.24 1099.93 103.12 1100.03 C101.4 1100.04 101.4 1100.04 99.64 1100.06 C98.44 1100.08 97.24 1100.1 96 1100.12 C93.63 1100.16 91.25 1100.19 88.88 1100.21 C87.29 1100.24 87.29 1100.24 85.68 1100.27 C83 1100.19 83 1100.19 80 1099.19 C80 1098.53 80 1097.87 80 1097.19 C79.34 1097.2 78.69 1097.21 78.01 1097.22 C75.05 1097.26 72.09 1097.29 69.12 1097.31 C68.09 1097.33 67.06 1097.35 66 1097.36 C65.01 1097.37 64.02 1097.38 63.01 1097.38 C62.1 1097.39 61.19 1097.4 60.25 1097.41 C58 1097.19 58 1097.19 56 1095.19 C52.71 1094.98 52.71 1094.98 49 1095.12 C42.2 1095.29 42.2 1095.29 40 1094.19 C40 1093.53 40 1092.87 40 1092.19 C38.88 1092.21 37.76 1092.23 36.61 1092.26 C35.13 1092.28 33.66 1092.29 32.19 1092.31 C31.45 1092.33 30.71 1092.35 29.95 1092.36 C26.09 1092.4 24.29 1092.38 21 1090.19 C18.48 1089.95 18.48 1089.95 15.81 1090.06 C14.46 1090.09 14.46 1090.09 13.08 1090.12 C12.05 1090.15 12.05 1090.15 11 1090.19 C10.67 1089.2 10.34 1088.21 10 1087.19 C9.16 1087.21 8.31 1087.23 7.45 1087.26 C5.8 1087.28 5.8 1087.28 4.12 1087.31 C3.03 1087.34 1.94 1087.36 0.82 1087.38 C-2 1087.19 -2 1087.19 -4 1085.19 C-6.14 1084.98 -6.14 1084.98 -8.5 1085.12 C-12.8 1085.29 -12.8 1085.29 -15 1084.19 C-15 1083.53 -15 1082.87 -15 1082.19 C-15.94 1082.22 -15.94 1082.22 -16.9 1082.26 C-18.12 1082.28 -18.12 1082.28 -19.38 1082.31 C-20.19 1082.34 -21 1082.36 -21.84 1082.38 C-24 1082.19 -24 1082.19 -26 1080.19 C-28.69 1079.92 -31.29 1080.1 -34 1080.19 C-34.33 1079.2 -34.66 1078.21 -35 1077.19 C-35.94 1077.22 -35.94 1077.22 -36.9 1077.26 C-38.12 1077.28 -38.12 1077.28 -39.38 1077.31 C-40.19 1077.34 -41 1077.36 -41.84 1077.38 C-44 1077.19 -44 1077.19 -46 1075.19 C-48.33 1075.15 -50.67 1075.15 -53 1075.19 C-53.66 1074.86 -54.32 1074.53 -55 1074.19 C-55 1073.53 -55 1072.87 -55 1072.19 C-57.31 1072.19 -59.62 1072.19 -62 1072.19 C-62 1071.53 -62 1070.87 -62 1070.19 C-63.99 1070.25 -65.97 1070.32 -67.96 1070.38 C-70 1070.19 -70 1070.19 -73 1068.19 C-74.5 1067.66 -76.03 1067.19 -77.56 1066.75 C-78.45 1066.49 -79.33 1066.24 -80.24 1065.97 C-81.15 1065.71 -82.06 1065.45 -83 1065.19 C-88.86 1063.51 -94.45 1061.72 -100 1059.19 C-100 1058.53 -100 1057.87 -100 1057.19 C-101.98 1057.19 -103.96 1057.19 -106 1057.19 C-106 1056.86 -106 1056.53 -106 1056.19 C-108.97 1055.53 -111.94 1054.87 -115 1054.19 C-115 1053.53 -115 1052.87 -115 1052.19 C-115.72 1052.06 -116.44 1051.94 -117.19 1051.81 C-122.38 1050.66 -127.13 1048.28 -132 1046.19 C-133.66 1045.51 -135.33 1044.85 -137 1044.19 C-137 1043.53 -137 1042.87 -137 1042.19 C-138.18 1042.25 -138.18 1042.25 -139.38 1042.31 C-142 1042.19 -142 1042.19 -144 1040.19 C-144.99 1039.86 -145.98 1039.53 -147 1039.19 C-147 1038.53 -147 1037.87 -147 1037.19 C-148.18 1037.25 -148.18 1037.25 -149.38 1037.31 C-152 1037.19 -152 1037.19 -154 1035.19 C-154.99 1034.86 -155.98 1034.53 -157 1034.19 C-157 1033.53 -157 1032.87 -157 1032.19 C-158.18 1032.25 -158.18 1032.25 -159.38 1032.31 C-162 1032.19 -162 1032.19 -164 1030.19 C-164.99 1029.86 -165.98 1029.53 -167 1029.19 C-167 1028.53 -167 1027.87 -167 1027.19 C-167.7 1027.08 -168.4 1026.98 -169.12 1026.88 C-173.37 1025.86 -176.9 1024.29 -180 1021.19 C-180.68 1021.02 -181.36 1020.86 -182.06 1020.69 C-183.02 1020.44 -183.02 1020.44 -184 1020.19 C-184.33 1019.53 -184.66 1018.87 -185 1018.19 C-186.18 1017.72 -186.18 1017.72 -187.38 1017.25 C-190 1016.19 -190 1016.19 -191.43 1014.71 C-193.2 1013 -194.48 1012.52 -196.81 1011.81 C-201.07 1010.34 -203.64 1008.16 -207 1005.19 C-207.99 1004.86 -208.98 1004.53 -210 1004.19 C-211.23 1002.67 -212.46 1001.14 -213.67 999.61 C-215.48 997.67 -217.55 997.11 -220 996.19 C-220.31 995.51 -220.62 994.83 -220.94 994.12 C-221.29 993.49 -221.64 992.85 -222 992.19 C-222.93 992.04 -223.86 991.9 -224.81 991.75 C-228.95 991.02 -230.31 989.33 -233 986.19 C-233.66 985.2 -234.32 984.21 -235 983.19 C-235.76 982.9 -236.53 982.61 -237.31 982.31 C-240.71 980.89 -242.49 978.92 -245 976.25 C-248.15 972.91 -250.98 970.4 -255 968.19 C-255.99 967.53 -256.98 966.87 -258 966.19 C-258 965.53 -258 964.87 -258 964.19 C-258.99 963.86 -259.98 963.53 -261 963.19 C-261 962.53 -261 961.87 -261 961.19 C-261.66 961.19 -262.32 961.19 -263 961.19 C-263 960.53 -263 959.87 -263 959.19 C-263.99 958.86 -264.98 958.53 -266 958.19 C-266 957.53 -266 956.87 -266 956.19 C-266.6 955.92 -267.2 955.65 -267.81 955.38 C-270 954.19 -271.41 953.09 -273 951.19 C-273 950.53 -273 949.87 -273 949.19 C-273.99 948.86 -274.98 948.53 -276 948.19 C-276 947.53 -276 946.87 -276 946.19 C-276.66 946.19 -277.32 946.19 -278 946.19 C-280.19 943.71 -282.02 941.16 -283.79 938.36 C-286.11 935.03 -288.63 932.43 -291.56 929.62 C-295.02 926.31 -297.65 923.35 -300 919.19 C-301.12 917.67 -302.27 916.17 -303.44 914.69 C-304.05 913.91 -304.66 913.14 -305.29 912.34 C-305.85 911.63 -306.42 910.92 -307 910.19 C-308.14 908.73 -308.14 908.73 -309.31 907.25 C-310.98 905.14 -310.98 905.14 -313 903.19 C-313.25 902.49 -313.5 901.78 -313.75 901.06 C-315.26 897.58 -317.37 894.98 -319.76 892.05 C-321 890.19 -321 890.19 -321 887.19 C-321.66 887.19 -322.32 887.19 -323 887.19 C-323.12 886.55 -323.25 885.91 -323.38 885.25 C-323.58 884.57 -323.79 883.89 -324 883.19 C-324.66 882.86 -325.32 882.53 -326 882.19 C-329.39 876.78 -332.08 871.28 -334 865.19 C-334.66 864.86 -335.32 864.53 -336 864.19 C-336.88 861.9 -337.53 859.57 -338.22 857.22 C-338.81 855 -338.81 855 -341 854.19 C-341.88 851.9 -342.53 849.57 -343.22 847.22 C-343.81 845 -343.81 845 -346 844.19 C-349.46 838.09 -351.49 831.12 -353.75 824.52 C-354.94 821.16 -354.94 821.16 -356.61 818.04 C-358.44 814.29 -358.64 811.31 -359 807.19 C-359.66 807.19 -360.32 807.19 -361 807.19 C-361.19 806.3 -361.39 805.4 -361.59 804.48 C-361.85 803.31 -362.11 802.14 -362.38 800.94 C-362.63 799.78 -362.89 798.62 -363.15 797.42 C-363.84 794.33 -363.84 794.33 -364.99 792.25 C-366.04 790.12 -366.55 788.22 -367.04 785.89 C-367.2 785.1 -367.37 784.31 -367.55 783.49 C-367.72 782.67 -367.89 781.85 -368.06 781 C-368.74 775.67 -368.74 775.67 -371 771.19 C-371.27 769.76 -371.49 768.33 -371.68 766.89 C-371.81 766.01 -371.93 765.14 -372.06 764.23 C-372.31 762.39 -372.56 760.54 -372.81 758.69 C-373.44 754.2 -374.2 750.37 -376 746.19 C-376.38 743.65 -376.38 743.65 -376.56 741.12 C-376.82 737.69 -376.82 737.69 -377.5 734.32 C-378.49 730.11 -378.47 725.71 -378.72 721.4 C-378.88 718.17 -378.88 718.17 -380 715.19 C-380.48 711.07 -380.75 706.94 -381.06 702.81 C-381.15 701.69 -381.24 700.58 -381.34 699.43 C-381.87 692.54 -382.07 685.75 -381.94 678.85 C-381.87 676.08 -381.87 676.08 -383 673.19 C-383.09 670.38 -383.12 667.6 -383.1 664.8 C-383.1 663.98 -383.09 663.17 -383.09 662.32 C-383.09 659.72 -383.08 657.11 -383.06 654.5 C-383.06 652.73 -383.05 650.96 -383.05 649.19 C-383.04 644.86 -383.02 640.52 -383 636.19 C-382.67 636.19 -382.34 636.19 -382 636.19 C-382.01 635.57 -382.02 634.95 -382.04 634.31 C-382.12 626.21 -381.6 618.2 -381 610.12 C-380.81 607.53 -380.62 604.93 -380.44 602.34 C-380.35 601.21 -380.27 600.07 -380.18 598.9 C-380.08 597.33 -380 595.76 -380 594.19 C-380 592.87 -380 591.55 -380 590.19 C-379.34 590.19 -378.68 590.19 -378 590.19 C-378 585.57 -378 580.95 -378 576.19 C-377.34 576.19 -376.68 576.19 -376 576.19 C-376.19 575.38 -376.37 574.58 -376.56 573.75 C-377.4 566.95 -376 560.59 -374.21 554.04 C-374.14 553.43 -374.07 552.82 -374 552.19 C-374.66 551.53 -375.32 550.87 -376 550.19 C-376.33 550.52 -376.66 550.85 -377 551.19 C-376.34 551.85 -375.68 552.51 -375 553.19 C-375.99 553.85 -376.98 554.51 -378 555.19 C-378.66 555.85 -379.32 556.51 -380 557.19 C-380.99 556.53 -381.98 555.87 -383 555.19 C-383 556.18 -383 557.17 -383 558.19 C-382.34 558.52 -381.68 558.85 -381 559.19 C-382.33 560.05 -382.33 560.05 -383.69 560.94 C-385.77 562.31 -387.59 563.69 -389.5 565.31 C-394.56 569.1 -400.14 569.61 -406.25 570 C-406.97 570.06 -407.69 570.13 -408.43 570.19 C-410.52 570.33 -410.52 570.33 -414 570.19 C-414.99 568.7 -414.99 568.7 -416 567.19 C-416.66 567.52 -417.32 567.85 -418 568.19 C-420.13 567.75 -420.13 567.75 -422 567.19 C-422 566.53 -422 565.87 -422 565.19 C-422.75 565.08 -423.51 564.98 -424.28 564.87 C-427.27 564.12 -428.35 563.34 -430.5 561.19 C-431.15 560.55 -431.8 559.91 -432.46 559.25 C-433.16 558.55 -433.86 557.84 -434.57 557.12 C-435.69 556.01 -435.69 556.01 -436.83 554.87 C-439.29 552.42 -441.74 549.96 -444.19 547.49 C-445.9 545.78 -447.61 544.08 -449.32 542.37 C-452.91 538.78 -456.48 535.19 -460.06 531.6 C-464.63 527 -469.22 522.41 -473.81 517.83 C-477.35 514.3 -480.87 510.77 -484.4 507.23 C-486.09 505.54 -487.78 503.85 -489.47 502.16 C-491.84 499.79 -494.2 497.41 -496.56 495.03 C-497.25 494.34 -497.95 493.65 -498.67 492.93 C-502.6 488.94 -505.43 485.17 -508 480.19 C-508.41 479.57 -508.81 478.95 -509.23 478.31 C-510.53 474.71 -510.29 471.04 -510.25 467.25 C-510.26 466.45 -510.27 465.65 -510.27 464.83 C-510.26 460.5 -510.01 457.13 -508 453.19 C-507.34 453.19 -506.68 453.19 -506 453.19 C-505.73 451.94 -505.73 451.94 -505.45 450.67 C-503.47 445.91 -500.39 443.03 -496.75 439.44 C-495.99 438.68 -495.23 437.91 -494.45 437.12 C-491.89 434.55 -489.32 431.99 -486.74 429.43 C-484.89 427.57 -483.04 425.71 -481.19 423.86 C-477.16 419.81 -473.12 415.78 -469.07 411.74 C-463.06 405.75 -457.06 399.74 -451.06 393.73 C-440.35 383 -429.62 372.28 -418.89 361.57 C-409.5 352.19 -400.12 342.81 -390.74 333.43 C-389.8 332.49 -389.8 332.49 -388.85 331.54 C-386.33 329.02 -383.8 326.49 -381.28 323.97 C-357.6 300.28 -333.9 276.6 -310.2 252.93 C-289.14 231.88 -268.08 210.83 -247.03 189.77 C-241.63 184.37 -236.24 178.98 -230.85 173.59 C-230.19 172.92 -229.52 172.26 -228.84 171.57 C-211.26 153.99 -193.68 136.41 -176.09 118.83 C-174.2 116.94 -172.31 115.05 -170.42 113.16 C-169.16 111.91 -167.91 110.65 -166.65 109.4 C-157.27 100.02 -147.89 90.64 -138.51 81.26 C-127.86 70.6 -117.19 59.94 -106.52 49.29 C-100.55 43.33 -94.58 37.36 -88.61 31.38 C-84.16 26.93 -79.71 22.49 -75.25 18.05 C-73.45 16.24 -71.64 14.44 -69.84 12.63 C-67.4 10.18 -64.95 7.74 -62.5 5.31 C-61.79 4.59 -61.08 3.87 -60.35 3.14 C-59.7 2.49 -59.05 1.85 -58.37 1.18 C-57.81 0.63 -57.26 0.07 -56.68 -0.51 C-54.79 -1.98 -53.31 -2.28 -51 -2.81 C-50.34 -3.47 -49.68 -4.13 -49 -4.81 C-48.67 -4.48 -48.34 -4.15 -48 -3.81 C-48 -4.14 -48 -4.47 -48 -4.81 C-31.05 -9.62 -15.27 -9.45 0 0 Z M-22 102.19 C-21 104.19 -21 104.19 -21 104.19 Z M-26 106.19 C-25.67 106.85 -25.34 107.51 -25 108.19 C-24.67 107.53 -24.34 106.87 -24 106.19 C-24.66 106.19 -25.32 106.19 -26 106.19 Z M-509 458.19 C-508 460.19 -508 460.19 -508 460.19 Z M-391 561.19 C-391.33 561.85 -391.66 562.51 -392 563.19 C-391.34 563.19 -390.68 563.19 -390 563.19 C-390.33 562.53 -390.66 561.87 -391 561.19 Z M-393 563.19 C-393 563.85 -393 564.51 -393 565.19 C-392.34 564.86 -391.68 564.53 -391 564.19 C-391.66 563.86 -392.32 563.53 -393 563.19 Z M682 857.19 C682 858.18 682 859.17 682 860.19 C682.99 859.86 683.98 859.53 685 859.19 C685 858.53 685 857.87 685 857.19 C684.01 857.19 683.02 857.19 682 857.19 Z M641 922.19 C642 924.19 642 924.19 642 924.19 Z M627 938.19 C626.67 938.85 626.34 939.51 626 940.19 C626.99 939.86 627.98 939.53 629 939.19 C628.34 938.86 627.68 938.53 627 938.19 Z M582 980.19 C582 981.18 582 982.17 582 983.19 C582.66 982.86 583.32 982.53 584 982.19 C584 981.53 584 980.87 584 980.19 C583.34 980.19 582.68 980.19 582 980.19 Z M575 985.19 C575.33 985.85 575.66 986.51 576 987.19 C576.66 986.53 577.32 985.87 578 985.19 C577.01 985.19 576.02 985.19 575 985.19 Z M572 988.19 C573 990.19 573 990.19 573 990.19 Z M558 997.19 C558.33 997.85 558.66 998.51 559 999.19 C559.33 998.53 559.66 997.87 560 997.19 C559.34 997.19 558.68 997.19 558 997.19 Z M539 1011.19 C538.67 1011.85 538.34 1012.51 538 1013.19 C538.99 1012.86 539.98 1012.53 541 1012.19 C540.34 1011.86 539.68 1011.53 539 1011.19 Z M530 1015.19 C530 1015.85 530 1016.51 530 1017.19 C529.01 1017.68 529.01 1017.68 528 1018.19 C528.99 1018.19 529.98 1018.19 531 1018.19 C530.67 1017.2 530.34 1016.21 530 1015.19 Z M502 1031.19 C502 1031.85 502 1032.51 502 1033.19 C502.66 1032.86 503.32 1032.53 504 1032.19 C503.34 1031.86 502.68 1031.53 502 1031.19 Z M482 1041.19 C482 1041.85 482 1042.51 482 1043.19 C482.66 1042.86 483.32 1042.53 484 1042.19 C483.34 1041.86 482.68 1041.53 482 1041.19 Z M470 1046.19 C470 1046.85 470 1047.51 470 1048.19 C470.66 1047.86 471.32 1047.53 472 1047.19 C471.34 1046.86 470.68 1046.53 470 1046.19 Z M-114 1052.19 C-110 1053.19 -110 1053.19 -110 1053.19 Z M457 1052.19 C461 1053.19 461 1053.19 461 1053.19 Z M445 1056.19 C445 1056.85 445 1057.51 445 1058.19 C445.66 1057.86 446.32 1057.53 447 1057.19 C446.34 1056.86 445.68 1056.53 445 1056.19 Z M-86 1062.19 C-82 1063.19 -82 1063.19 -82 1063.19 Z M417 1066.19 C417 1066.85 417 1067.51 417 1068.19 C417.66 1067.86 418.32 1067.53 419 1067.19 C418.34 1066.86 417.68 1066.53 417 1066.19 Z M-71 1067.19 C-71 1067.52 -71 1067.85 -71 1068.19 C-69.02 1068.19 -67.04 1068.19 -65 1068.19 C-65 1067.86 -65 1067.53 -65 1067.19 C-66.98 1067.19 -68.96 1067.19 -71 1067.19 Z M400 1071.19 C400 1071.85 400 1072.51 400 1073.19 C400.66 1072.86 401.32 1072.53 402 1072.19 C401.34 1071.86 400.68 1071.53 400 1071.19 Z M382 1076.19 C382 1076.85 382 1077.51 382 1078.19 C382.66 1077.86 383.32 1077.53 384 1077.19 C383.34 1076.86 382.68 1076.53 382 1076.19 Z M362 1081.19 C362 1081.85 362 1082.51 362 1083.19 C362.66 1082.86 363.32 1082.53 364 1082.19 C363.34 1081.86 362.68 1081.53 362 1081.19 Z M337 1086.19 C337 1086.85 337 1087.51 337 1088.19 C337.66 1087.86 338.32 1087.53 339 1087.19 C338.34 1086.86 337.68 1086.53 337 1086.19 Z M307 1091.19 C307 1091.85 307 1092.51 307 1093.19 C307.66 1092.86 308.32 1092.53 309 1092.19 C308.34 1091.86 307.68 1091.53 307 1091.19 Z " fill="#EFB923" transform="translate(530,91.8125)"/>
<path d="M0 0 C3.69 2.68 6.62 5.83 9.49 9.36 C10.96 11.2 10.96 11.2 12.6 12.78 C20.42 20.65 22.15 33.91 22.12 44.44 C22.13 45.66 22.13 46.88 22.13 48.14 C22 51.19 22 51.19 21 53.19 C20.34 53.19 19.68 53.19 19 53.19 C19.09 54.98 19.09 54.98 19.19 56.81 C19.21 60.92 18.13 63.64 16 67.19 C15.67 66.53 15.34 65.87 15 65.19 C14.01 65.19 13.02 65.19 12 65.19 C12 66.18 12 67.17 12 68.19 C12.66 68.52 13.32 68.85 14 69.19 C12.51 71.66 12.51 71.66 11 74.19 C10.34 73.53 9.68 72.87 9 72.19 C8.67 72.52 8.34 72.85 8 73.19 C8.66 74.18 9.32 75.17 10 76.19 C9.34 76.19 8.68 76.19 8 76.19 C7.73 76.83 7.46 77.47 7.19 78.12 C6 80.19 6 80.19 3 81.19 C2.67 81.85 2.34 82.51 2 83.19 C1.67 83.85 1.34 84.51 1 85.19 C-0.49 85.68 -0.49 85.68 -2 86.19 C-2.33 86.85 -2.66 87.51 -3 88.19 C-3.33 88.85 -3.66 89.51 -4 90.19 C-5.49 90.68 -5.49 90.68 -7 91.19 C-7.33 91.85 -7.66 92.51 -8 93.19 C-8.33 93.85 -8.66 94.51 -9 95.19 C-10.49 95.68 -10.49 95.68 -12 96.19 C-12.33 96.85 -12.66 97.51 -13 98.19 C-13.33 98.85 -13.66 99.51 -14 100.19 C-15.49 100.68 -15.49 100.68 -17 101.19 C-17.33 101.85 -17.66 102.51 -18 103.19 C-18.33 103.85 -18.66 104.51 -19 105.19 C-20.49 105.68 -20.49 105.68 -22 106.19 C-22 106.85 -22 107.51 -22 108.19 C-23.65 108.85 -25.3 109.51 -27 110.19 C-27 109.53 -27 108.87 -27 108.19 C-27.66 108.19 -28.32 108.19 -29 108.19 C-28.79 108.76 -28.59 109.34 -28.38 109.94 C-27.91 112.71 -28.57 113.83 -30 116.19 C-30.66 116.19 -31.32 116.19 -32 116.19 C-32 116.85 -32 117.51 -32 118.19 C-33.43 119.15 -34.86 120.11 -36.31 121.03 C-39.07 122.92 -41.37 125.27 -43.71 127.63 C-44.25 128.16 -44.79 128.69 -45.34 129.23 C-47.09 130.97 -48.84 132.72 -50.58 134.47 C-51.8 135.69 -53.03 136.9 -54.25 138.12 C-56.8 140.67 -59.35 143.22 -61.9 145.77 C-65.16 149.04 -68.44 152.3 -71.72 155.55 C-74.24 158.06 -76.75 160.58 -79.27 163.09 C-80.47 164.3 -81.68 165.5 -82.89 166.7 C-84.58 168.38 -86.26 170.06 -87.93 171.75 C-88.43 172.24 -88.94 172.74 -89.45 173.24 C-91.92 175.75 -93.61 177.62 -94 181.19 C-93.49 181.03 -92.99 180.87 -92.47 180.71 C-82.11 178.51 -71 179.43 -62 185.19 C-53.3 192.71 -48.95 202.03 -47.78 213.34 C-47.23 226.63 -52.79 235.75 -60.4 246.02 C-62.04 248.24 -63.65 250.48 -65.26 252.72 C-67.46 255.78 -69.66 258.83 -71.88 261.88 C-74.61 265.64 -77.31 269.41 -80 273.19 C-83.75 278.45 -87.53 283.7 -91.31 288.94 C-91.86 289.69 -92.41 290.45 -92.97 291.23 C-95.74 295.07 -98.52 298.9 -101.3 302.74 C-106.57 310.03 -111.82 317.33 -117 324.69 C-122.72 332.82 -128.53 340.87 -134.36 348.92 C-137.08 352.67 -139.79 356.43 -142.5 360.19 C-143.58 361.69 -144.67 363.19 -145.75 364.69 C-146.29 365.43 -146.82 366.17 -147.38 366.94 C-152.25 373.69 -152.25 373.69 -153.88 375.94 C-154.96 377.44 -156.04 378.93 -157.12 380.43 C-159.86 384.23 -162.61 388.03 -165.36 391.83 C-170.25 398.6 -175.15 405.38 -180 412.19 C-184.3 418.22 -188.62 424.23 -192.97 430.22 C-195.79 434.11 -198.58 438.01 -201.33 441.95 C-210.01 454.32 -218.92 465.19 -232 473.19 C-233.08 473.86 -233.08 473.86 -234.18 474.55 C-248.95 482.82 -266.87 484.26 -283.37 486.31 C-299.14 488.32 -318.27 492.29 -329 505.19 C-332.83 512.33 -333.9 519.65 -334.62 527.62 C-334.74 528.83 -334.86 530.04 -334.98 531.29 C-335.35 535.25 -335.69 539.22 -336 543.19 C-336.08 544.19 -336.08 544.19 -336.16 545.21 C-342.86 630.65 -333.94 717.29 -260 859.19 C-259.3 860.15 -258.6 861.12 -257.88 862.11 C-246.62 877.41 -234.2 891.54 -221 905.19 C-220.13 906.1 -219.27 907 -218.38 907.94 C-213.78 912.66 -208.88 916.83 -203.73 920.95 C-201.17 923.05 -198.74 925.24 -196.31 927.5 C-189.6 933.58 -182.34 938.89 -175 944.19 C-174.14 944.81 -173.27 945.43 -172.38 946.08 C-136.37 971.93 -96.55 993.21 -55.12 1008.99 C-52.02 1010.18 -48.93 1011.39 -45.84 1012.61 C20.04 1038.11 90.77 1050.73 161 1056.19 C162.23 1056.29 163.47 1056.39 164.74 1056.49 C207.44 1059.79 251.24 1060.52 294 1058.19 C295.86 1058.1 295.86 1058.1 297.76 1058 C343.96 1055.71 390.03 1049 435 1038.19 C436.88 1037.74 436.88 1037.74 438.81 1037.28 C470.09 1029.72 500.71 1019.87 530.77 1008.37 C537.47 1005.81 543.92 1003.45 551 1002.19 C551.33 1002.85 551.66 1003.51 552 1004.19 C551.34 1004.52 550.68 1004.85 550 1005.19 C550 1006.51 550 1007.83 550 1009.19 C549.09 1009.62 548.18 1010.05 547.25 1010.5 C544.07 1012.03 544.07 1012.03 541.81 1013.88 C540 1015.19 540 1015.19 537 1015.19 C537 1015.85 537 1016.51 537 1017.19 C535.89 1017.59 535.89 1017.59 534.75 1018 C532.09 1019.15 530.3 1020.45 528 1022.19 C526.52 1023.11 525.02 1024.01 523.5 1024.88 C522.75 1025.31 521.99 1025.75 521.22 1026.2 C519 1027.19 519 1027.19 515 1027.19 C514.67 1028.18 514.34 1029.17 514 1030.19 C510.68 1031.89 508.82 1032.19 505 1032.19 C504.67 1033.18 504.34 1034.17 504 1035.19 C500.68 1036.89 498.82 1037.19 495 1037.19 C494.67 1038.18 494.34 1039.17 494 1040.19 C492.25 1040.81 492.25 1040.81 490 1041.19 C489.09 1041.37 488.18 1041.56 487.25 1041.75 C486.51 1041.89 485.76 1042.04 485 1042.19 C484.67 1043.18 484.34 1044.17 484 1045.19 C478.74 1047.82 472.76 1049.14 467 1050.19 C467 1050.85 467 1051.51 467 1052.19 C466.1 1052.48 466.1 1052.48 465.17 1052.77 C464.37 1053.03 463.57 1053.29 462.75 1053.56 C461.96 1053.82 461.17 1054.07 460.36 1054.34 C458.01 1055.13 458.01 1055.13 455.91 1056.23 C454 1057.19 454 1057.19 450.62 1058.12 C447 1059.05 447 1059.05 443.94 1060.81 C440.69 1062.33 438.54 1062.44 435 1062.19 C435 1061.53 435 1060.87 435 1060.19 C434.01 1061.18 433.02 1062.17 432 1063.19 C432.66 1063.52 433.32 1063.85 434 1064.19 C433.01 1064.46 432.02 1064.72 431 1065 C428.23 1065.79 425.56 1066.71 422.88 1067.75 C419.93 1068.88 417.12 1069.65 414 1070.19 C413.01 1070.52 412.02 1070.85 411 1071.19 C411 1071.52 411 1071.85 411 1072.19 C409.08 1072.37 409.08 1072.37 407.12 1072.56 C403.65 1072.88 403.65 1072.88 401 1075.19 C399.01 1075.56 397.01 1075.89 395 1076.19 C394.34 1076.52 393.68 1076.85 393 1077.19 C390.33 1077.32 387.68 1077.23 385 1077.19 C385 1077.85 385 1078.51 385 1079.19 C382.69 1079.87 380.87 1080.18 378.44 1080.12 C375.74 1079.98 375.74 1079.98 373 1082.19 C370.96 1082.38 370.96 1082.38 368.81 1082.31 C367.55 1082.27 366.3 1082.23 365 1082.19 C365 1082.85 365 1083.51 365 1084.19 C361.85 1085.24 359.61 1085.29 356.31 1085.25 C355.32 1085.24 354.32 1085.23 353.3 1085.22 C352.54 1085.21 351.78 1085.2 351 1085.19 C350.67 1085.85 350.34 1086.51 350 1087.19 C346.7 1087.19 343.4 1087.19 340 1087.19 C340 1087.85 340 1088.51 340 1089.19 C336.05 1090.37 332.43 1090.18 328.34 1090.03 C325.73 1090.01 325.73 1090.01 323 1092.19 C319.86 1092.38 319.86 1092.38 316.31 1092.31 C315.13 1092.29 313.95 1092.28 312.74 1092.26 C311.38 1092.22 311.38 1092.22 310 1092.19 C310 1092.85 310 1093.51 310 1094.19 C305.55 1095.66 300.93 1095.2 296.31 1095.06 C294.54 1095.03 292.77 1095.1 291 1095.19 C290.34 1095.85 289.68 1096.51 289 1097.19 C286.75 1097.41 286.75 1097.41 283.99 1097.38 C283.01 1097.38 282.02 1097.37 281 1097.36 C279.97 1097.35 278.94 1097.33 277.88 1097.31 C276.83 1097.3 275.79 1097.29 274.72 1097.29 C272.15 1097.26 269.57 1097.23 267 1097.19 C267 1097.85 267 1098.51 267 1099.19 C263.83 1100.24 261.67 1100.27 258.34 1100.21 C256.69 1100.2 256.69 1100.2 255 1100.18 C252.67 1100.14 250.33 1100.1 248 1100.06 C246.9 1100.05 245.79 1100.04 244.66 1100.03 C243.64 1100.01 242.63 1099.99 241.59 1099.98 C238.76 1100 238.76 1100 236 1102.19 C233.7 1102.44 233.7 1102.44 230.95 1102.44 C229.91 1102.45 228.87 1102.45 227.79 1102.46 C226.65 1102.45 225.5 1102.45 224.32 1102.45 C223.12 1102.45 221.91 1102.45 220.67 1102.46 C217.37 1102.46 214.06 1102.46 210.76 1102.46 C207.3 1102.45 203.84 1102.46 200.38 1102.46 C194.57 1102.46 188.77 1102.46 182.96 1102.45 C176.24 1102.44 169.53 1102.44 162.81 1102.45 C157.05 1102.46 151.28 1102.46 145.52 1102.46 C142.08 1102.45 138.63 1102.45 135.19 1102.46 C131.35 1102.47 127.51 1102.46 123.68 1102.45 C122.53 1102.45 121.39 1102.45 120.21 1102.46 C119.17 1102.45 118.12 1102.45 117.05 1102.44 C116.14 1102.44 115.23 1102.44 114.3 1102.44 C112 1102.19 112 1102.19 109 1100.19 C106.24 1099.93 106.24 1099.93 103.12 1100.03 C101.4 1100.04 101.4 1100.04 99.64 1100.06 C98.44 1100.08 97.24 1100.1 96 1100.12 C93.63 1100.16 91.25 1100.19 88.88 1100.21 C87.29 1100.24 87.29 1100.24 85.68 1100.27 C83 1100.19 83 1100.19 80 1099.19 C80 1098.53 80 1097.87 80 1097.19 C79.34 1097.2 78.69 1097.21 78.01 1097.22 C75.05 1097.26 72.09 1097.29 69.12 1097.31 C68.09 1097.33 67.06 1097.35 66 1097.36 C65.01 1097.37 64.02 1097.38 63.01 1097.38 C62.1 1097.39 61.19 1097.4 60.25 1097.41 C58 1097.19 58 1097.19 56 1095.19 C52.71 1094.98 52.71 1094.98 49 1095.12 C42.2 1095.29 42.2 1095.29 40 1094.19 C40 1093.53 40 1092.87 40 1092.19 C38.88 1092.21 37.76 1092.23 36.61 1092.26 C35.13 1092.28 33.66 1092.29 32.19 1092.31 C31.45 1092.33 30.71 1092.35 29.95 1092.36 C26.09 1092.4 24.29 1092.38 21 1090.19 C18.48 1089.95 18.48 1089.95 15.81 1090.06 C14.46 1090.09 14.46 1090.09 13.08 1090.12 C12.05 1090.15 12.05 1090.15 11 1090.19 C10.67 1089.2 10.34 1088.21 10 1087.19 C9.16 1087.21 8.31 1087.23 7.45 1087.26 C5.8 1087.28 5.8 1087.28 4.12 1087.31 C3.03 1087.34 1.94 1087.36 0.82 1087.38 C-2 1087.19 -2 1087.19 -4 1085.19 C-6.14 1084.98 -6.14 1084.98 -8.5 1085.12 C-12.8 1085.29 -12.8 1085.29 -15 1084.19 C-15 1083.53 -15 1082.87 -15 1082.19 C-15.94 1082.22 -15.94 1082.22 -16.9 1082.26 C-18.12 1082.28 -18.12 1082.28 -19.38 1082.31 C-20.19 1082.34 -21 1082.36 -21.84 1082.38 C-24 1082.19 -24 1082.19 -26 1080.19 C-28.69 1079.92 -31.29 1080.1 -34 1080.19 C-34.33 1079.2 -34.66 1078.21 -35 1077.19 C-35.94 1077.22 -35.94 1077.22 -36.9 1077.26 C-38.12 1077.28 -38.12 1077.28 -39.38 1077.31 C-40.19 1077.34 -41 1077.36 -41.84 1077.38 C-44 1077.19 -44 1077.19 -46 1075.19 C-48.33 1075.15 -50.67 1075.15 -53 1075.19 C-53.66 1074.86 -54.32 1074.53 -55 1074.19 C-55 1073.53 -55 1072.87 -55 1072.19 C-57.31 1072.19 -59.62 1072.19 -62 1072.19 C-62 1071.53 -62 1070.87 -62 1070.19 C-63.99 1070.25 -65.97 1070.32 -67.96 1070.38 C-70 1070.19 -70 1070.19 -73 1068.19 C-74.5 1067.66 -76.03 1067.19 -77.56 1066.75 C-78.45 1066.49 -79.33 1066.24 -80.24 1065.97 C-81.15 1065.71 -82.06 1065.45 -83 1065.19 C-88.86 1063.51 -94.45 1061.72 -100 1059.19 C-100 1058.53 -100 1057.87 -100 1057.19 C-101.98 1057.19 -103.96 1057.19 -106 1057.19 C-106 1056.86 -106 1056.53 -106 1056.19 C-108.97 1055.53 -111.94 1054.87 -115 1054.19 C-115 1053.53 -115 1052.87 -115 1052.19 C-115.72 1052.06 -116.44 1051.94 -117.19 1051.81 C-122.38 1050.66 -127.13 1048.28 -132 1046.19 C-133.66 1045.51 -135.33 1044.85 -137 1044.19 C-137 1043.53 -137 1042.87 -137 1042.19 C-138.18 1042.25 -138.18 1042.25 -139.38 1042.31 C-142 1042.19 -142 1042.19 -144 1040.19 C-144.99 1039.86 -145.98 1039.53 -147 1039.19 C-147 1038.53 -147 1037.87 -147 1037.19 C-148.18 1037.25 -148.18 1037.25 -149.38 1037.31 C-152 1037.19 -152 1037.19 -154 1035.19 C-154.99 1034.86 -155.98 1034.53 -157 1034.19 C-157 1033.53 -157 1032.87 -157 1032.19 C-158.18 1032.25 -158.18 1032.25 -159.38 1032.31 C-162 1032.19 -162 1032.19 -164 1030.19 C-164.99 1029.86 -165.98 1029.53 -167 1029.19 C-167 1028.53 -167 1027.87 -167 1027.19 C-167.7 1027.08 -168.4 1026.98 -169.12 1026.88 C-173.37 1025.86 -176.9 1024.29 -180 1021.19 C-180.68 1021.02 -181.36 1020.86 -182.06 1020.69 C-183.02 1020.44 -183.02 1020.44 -184 1020.19 C-184.33 1019.53 -184.66 1018.87 -185 1018.19 C-186.18 1017.72 -186.18 1017.72 -187.38 1017.25 C-190 1016.19 -190 1016.19 -191.43 1014.71 C-193.2 1013 -194.48 1012.52 -196.81 1011.81 C-201.07 1010.34 -203.64 1008.16 -207 1005.19 C-207.99 1004.86 -208.98 1004.53 -210 1004.19 C-211.23 1002.67 -212.46 1001.14 -213.67 999.61 C-215.48 997.67 -217.55 997.11 -220 996.19 C-220.31 995.51 -220.62 994.83 -220.94 994.12 C-221.29 993.49 -221.64 992.85 -222 992.19 C-222.93 992.04 -223.86 991.9 -224.81 991.75 C-228.95 991.02 -230.31 989.33 -233 986.19 C-233.66 985.2 -234.32 984.21 -235 983.19 C-235.76 982.9 -236.53 982.61 -237.31 982.31 C-240.71 980.89 -242.49 978.92 -245 976.25 C-248.15 972.91 -250.98 970.4 -255 968.19 C-255.99 967.53 -256.98 966.87 -258 966.19 C-258 965.53 -258 964.87 -258 964.19 C-258.99 963.86 -259.98 963.53 -261 963.19 C-261 962.53 -261 961.87 -261 961.19 C-261.66 961.19 -262.32 961.19 -263 961.19 C-263 960.53 -263 959.87 -263 959.19 C-263.99 958.86 -264.98 958.53 -266 958.19 C-266 957.53 -266 956.87 -266 956.19 C-266.6 955.92 -267.2 955.65 -267.81 955.38 C-270 954.19 -271.41 953.09 -273 951.19 C-273 950.53 -273 949.87 -273 949.19 C-273.99 948.86 -274.98 948.53 -276 948.19 C-276 947.53 -276 946.87 -276 946.19 C-276.66 946.19 -277.32 946.19 -278 946.19 C-280.19 943.71 -282.02 941.16 -283.79 938.36 C-286.11 935.03 -288.63 932.43 -291.56 929.62 C-295.02 926.31 -297.65 923.35 -300 919.19 C-301.12 917.67 -302.27 916.17 -303.44 914.69 C-304.05 913.91 -304.66 913.14 -305.29 912.34 C-305.85 911.63 -306.42 910.92 -307 910.19 C-308.14 908.73 -308.14 908.73 -309.31 907.25 C-310.98 905.14 -310.98 905.14 -313 903.19 C-313.25 902.49 -313.5 901.78 -313.75 901.06 C-315.26 897.58 -317.37 894.98 -319.76 892.05 C-321 890.19 -321 890.19 -321 887.19 C-321.66 887.19 -322.32 887.19 -323 887.19 C-323.12 886.55 -323.25 885.91 -323.38 885.25 C-323.58 884.57 -323.79 883.89 -324 883.19 C-324.66 882.86 -325.32 882.53 -326 882.19 C-329.39 876.78 -332.08 871.28 -334 865.19 C-334.66 864.86 -335.32 864.53 -336 864.19 C-336.88 861.9 -337.53 859.57 -338.22 857.22 C-338.81 855 -338.81 855 -341 854.19 C-341.88 851.9 -342.53 849.57 -343.22 847.22 C-343.81 845 -343.81 845 -346 844.19 C-349.46 838.09 -351.49 831.12 -353.75 824.52 C-354.94 821.16 -354.94 821.16 -356.61 818.04 C-358.44 814.29 -358.64 811.31 -359 807.19 C-359.66 807.19 -360.32 807.19 -361 807.19 C-361.19 806.3 -361.39 805.4 -361.59 804.48 C-361.85 803.31 -362.11 802.14 -362.38 800.94 C-362.63 799.78 -362.89 798.62 -363.15 797.42 C-363.84 794.33 -363.84 794.33 -364.99 792.25 C-366.04 790.12 -366.55 788.22 -367.04 785.89 C-367.2 785.1 -367.37 784.31 -367.55 783.49 C-367.72 782.67 -367.89 781.85 -368.06 781 C-368.74 775.67 -368.74 775.67 -371 771.19 C-371.27 769.76 -371.49 768.33 -371.68 766.89 C-371.81 766.01 -371.93 765.14 -372.06 764.23 C-372.31 762.39 -372.56 760.54 -372.81 758.69 C-373.44 754.2 -374.2 750.37 -376 746.19 C-376.38 743.65 -376.38 743.65 -376.56 741.12 C-376.82 737.69 -376.82 737.69 -377.5 734.32 C-378.49 730.11 -378.47 725.71 -378.72 721.4 C-378.88 718.17 -378.88 718.17 -380 715.19 C-380.48 711.07 -380.75 706.94 -381.06 702.81 C-381.15 701.69 -381.24 700.58 -381.34 699.43 C-381.87 692.54 -382.07 685.75 -381.94 678.85 C-381.87 676.08 -381.87 676.08 -383 673.19 C-383.09 670.38 -383.12 667.6 -383.1 664.8 C-383.1 663.98 -383.09 663.17 -383.09 662.32 C-383.09 659.72 -383.08 657.11 -383.06 654.5 C-383.06 652.73 -383.05 650.96 -383.05 649.19 C-383.04 644.86 -383.02 640.52 -383 636.19 C-382.67 636.19 -382.34 636.19 -382 636.19 C-382.01 635.57 -382.02 634.95 -382.04 634.31 C-382.12 626.21 -381.6 618.2 -381 610.12 C-380.81 607.53 -380.62 604.93 -380.44 602.34 C-380.35 601.21 -380.27 600.07 -380.18 598.9 C-380.08 597.33 -380 595.76 -380 594.19 C-380 592.87 -380 591.55 -380 590.19 C-379.34 590.19 -378.68 590.19 -378 590.19 C-378 585.57 -378 580.95 -378 576.19 C-377.34 576.19 -376.68 576.19 -376 576.19 C-376.19 575.38 -376.37 574.58 -376.56 573.75 C-377.4 566.95 -376 560.59 -374.21 554.04 C-374.14 553.43 -374.07 552.82 -374 552.19 C-374.66 551.53 -375.32 550.87 -376 550.19 C-376.33 550.52 -376.66 550.85 -377 551.19 C-376.34 551.85 -375.68 552.51 -375 553.19 C-375.99 553.85 -376.98 554.51 -378 555.19 C-378.66 555.85 -379.32 556.51 -380 557.19 C-380.99 556.53 -381.98 555.87 -383 555.19 C-383 556.18 -383 557.17 -383 558.19 C-382.34 558.52 -381.68 558.85 -381 559.19 C-382.33 560.05 -382.33 560.05 -383.69 560.94 C-385.77 562.31 -387.59 563.69 -389.5 565.31 C-394.56 569.1 -400.14 569.61 -406.25 570 C-406.97 570.06 -407.69 570.13 -408.43 570.19 C-410.52 570.33 -410.52 570.33 -414 570.19 C-414.99 568.7 -414.99 568.7 -416 567.19 C-416.66 567.52 -417.32 567.85 -418 568.19 C-420.13 567.75 -420.13 567.75 -422 567.19 C-422 566.53 -422 565.87 -422 565.19 C-422.75 565.08 -423.51 564.98 -424.28 564.87 C-427.27 564.12 -428.35 563.34 -430.5 561.19 C-431.15 560.55 -431.8 559.91 -432.46 559.25 C-433.16 558.55 -433.86 557.84 -434.57 557.12 C-435.69 556.01 -435.69 556.01 -436.83 554.87 C-439.29 552.42 -441.74 549.96 -444.19 547.49 C-445.9 545.78 -447.61 544.08 -449.32 542.37 C-452.91 538.78 -456.48 535.19 -460.06 531.6 C-464.63 527 -469.22 522.41 -473.81 517.83 C-477.35 514.3 -480.87 510.77 -484.4 507.23 C-486.09 505.54 -487.78 503.85 -489.47 502.16 C-491.84 499.79 -494.2 497.41 -496.56 495.03 C-497.25 494.34 -497.95 493.65 -498.67 492.93 C-502.6 488.94 -505.43 485.17 -508 480.19 C-508.41 479.57 -508.81 478.95 -509.23 478.31 C-510.53 474.71 -510.29 471.04 -510.25 467.25 C-510.26 466.45 -510.27 465.65 -510.27 464.83 C-510.26 460.5 -510.01 457.13 -508 453.19 C-507.34 453.19 -506.68 453.19 -506 453.19 C-505.73 451.94 -505.73 451.94 -505.45 450.67 C-503.47 445.91 -500.39 443.03 -496.75 439.44 C-495.99 438.68 -495.23 437.91 -494.45 437.12 C-491.89 434.55 -489.32 431.99 -486.74 429.43 C-484.89 427.57 -483.04 425.71 -481.19 423.86 C-477.16 419.81 -473.12 415.78 -469.07 411.74 C-463.06 405.75 -457.06 399.74 -451.06 393.73 C-440.35 383 -429.62 372.28 -418.89 361.57 C-409.5 352.19 -400.12 342.81 -390.74 333.43 C-389.8 332.49 -389.8 332.49 -388.85 331.54 C-386.33 329.02 -383.8 326.49 -381.28 323.97 C-357.6 300.28 -333.9 276.6 -310.2 252.93 C-289.14 231.88 -268.08 210.83 -247.03 189.77 C-241.63 184.37 -236.24 178.98 -230.85 173.59 C-230.19 172.92 -229.52 172.26 -228.84 171.57 C-211.26 153.99 -193.68 136.41 -176.09 118.83 C-174.2 116.94 -172.31 115.05 -170.42 113.16 C-169.16 111.91 -167.91 110.65 -166.65 109.4 C-157.27 100.02 -147.89 90.64 -138.51 81.26 C-127.86 70.6 -117.19 59.94 -106.52 49.29 C-100.55 43.33 -94.58 37.36 -88.61 31.38 C-84.16 26.93 -79.71 22.49 -75.25 18.05 C-73.45 16.24 -71.64 14.44 -69.84 12.63 C-67.4 10.18 -64.95 7.74 -62.5 5.31 C-61.79 4.59 -61.08 3.87 -60.35 3.14 C-59.7 2.49 -59.05 1.85 -58.37 1.18 C-57.81 0.63 -57.26 0.07 -56.68 -0.51 C-54.79 -1.98 -53.31 -2.28 -51 -2.81 C-50.34 -3.47 -49.68 -4.13 -49 -4.81 C-48.67 -4.48 -48.34 -4.15 -48 -3.81 C-48 -4.14 -48 -4.47 -48 -4.81 C-31.05 -9.62 -15.27 -9.45 0 0 Z M-22 102.19 C-21 104.19 -21 104.19 -21 104.19 Z M-26 106.19 C-25.67 106.85 -25.34 107.51 -25 108.19 C-24.67 107.53 -24.34 106.87 -24 106.19 C-24.66 106.19 -25.32 106.19 -26 106.19 Z M-509 458.19 C-508 460.19 -508 460.19 -508 460.19 Z M-391 561.19 C-391.33 561.85 -391.66 562.51 -392 563.19 C-391.34 563.19 -390.68 563.19 -390 563.19 C-390.33 562.53 -390.66 561.87 -391 561.19 Z M-393 563.19 C-393 563.85 -393 564.51 -393 565.19 C-392.34 564.86 -391.68 564.53 -391 564.19 C-391.66 563.86 -392.32 563.53 -393 563.19 Z M539 1011.19 C538.67 1011.85 538.34 1012.51 538 1013.19 C538.99 1012.86 539.98 1012.53 541 1012.19 C540.34 1011.86 539.68 1011.53 539 1011.19 Z M530 1015.19 C530 1015.85 530 1016.51 530 1017.19 C529.01 1017.68 529.01 1017.68 528 1018.19 C528.99 1018.19 529.98 1018.19 531 1018.19 C530.67 1017.2 530.34 1016.21 530 1015.19 Z M502 1031.19 C502 1031.85 502 1032.51 502 1033.19 C502.66 1032.86 503.32 1032.53 504 1032.19 C503.34 1031.86 502.68 1031.53 502 1031.19 Z M482 1041.19 C482 1041.85 482 1042.51 482 1043.19 C482.66 1042.86 483.32 1042.53 484 1042.19 C483.34 1041.86 482.68 1041.53 482 1041.19 Z M470 1046.19 C470 1046.85 470 1047.51 470 1048.19 C470.66 1047.86 471.32 1047.53 472 1047.19 C471.34 1046.86 470.68 1046.53 470 1046.19 Z M-114 1052.19 C-110 1053.19 -110 1053.19 -110 1053.19 Z M457 1052.19 C461 1053.19 461 1053.19 461 1053.19 Z M445 1056.19 C445 1056.85 445 1057.51 445 1058.19 C445.66 1057.86 446.32 1057.53 447 1057.19 C446.34 1056.86 445.68 1056.53 445 1056.19 Z M-86 1062.19 C-82 1063.19 -82 1063.19 -82 1063.19 Z M417 1066.19 C417 1066.85 417 1067.51 417 1068.19 C417.66 1067.86 418.32 1067.53 419 1067.19 C418.34 1066.86 417.68 1066.53 417 1066.19 Z M-71 1067.19 C-71 1067.52 -71 1067.85 -71 1068.19 C-69.02 1068.19 -67.04 1068.19 -65 1068.19 C-65 1067.86 -65 1067.53 -65 1067.19 C-66.98 1067.19 -68.96 1067.19 -71 1067.19 Z M400 1071.19 C400 1071.85 400 1072.51 400 1073.19 C400.66 1072.86 401.32 1072.53 402 1072.19 C401.34 1071.86 400.68 1071.53 400 1071.19 Z M382 1076.19 C382 1076.85 382 1077.51 382 1078.19 C382.66 1077.86 383.32 1077.53 384 1077.19 C383.34 1076.86 382.68 1076.53 382 1076.19 Z M362 1081.19 C362 1081.85 362 1082.51 362 1083.19 C362.66 1082.86 363.32 1082.53 364 1082.19 C363.34 1081.86 362.68 1081.53 362 1081.19 Z M337 1086.19 C337 1086.85 337 1087.51 337 1088.19 C337.66 1087.86 338.32 1087.53 339 1087.19 C338.34 1086.86 337.68 1086.53 337 1086.19 Z M307 1091.19 C307 1091.85 307 1092.51 307 1093.19 C307.66 1092.86 308.32 1092.53 309 1092.19 C308.34 1091.86 307.68 1091.53 307 1091.19 Z " fill="#DFA218" transform="translate(530,91.8125)"/>
<path d="M0 0 C-0.08 0.73 -0.16 1.45 -0.24 2.2 C-9.67 88.45 -6.74 176.19 73 346 C73.7 346.96 74.4 347.93 75.12 348.92 C86.38 364.23 98.8 378.36 112 392 C112.87 392.91 113.73 393.82 114.62 394.75 C119.22 399.48 124.12 403.65 129.27 407.76 C131.83 409.86 134.26 412.05 136.69 414.31 C143.4 420.4 150.66 425.7 158 431 C159.3 431.94 159.3 431.94 160.62 432.89 C196.63 458.75 236.45 480.02 277.88 495.81 C280.98 496.99 284.07 498.2 287.16 499.42 C353.04 524.93 423.77 537.55 494 543 C495.85 543.15 495.85 543.15 497.74 543.3 C540.44 546.6 584.24 547.33 627 545 C628.24 544.94 629.48 544.88 630.76 544.82 C676.96 542.52 723.03 535.82 768 525 C769.26 524.7 770.51 524.4 771.81 524.09 C803.09 516.54 833.71 506.68 863.77 495.18 C870.47 492.62 876.92 490.26 884 489 C884.33 489.66 884.66 490.32 885 491 C884.01 491.49 884.01 491.49 883 492 C883 493.32 883 494.64 883 496 C882.09 496.43 881.18 496.87 880.25 497.31 C877.07 498.84 877.07 498.84 874.81 500.69 C873 502 873 502 870 502 C870 502.66 870 503.32 870 504 C869.26 504.27 868.51 504.54 867.75 504.81 C865.09 505.96 863.3 507.26 861 509 C859.52 509.93 858.02 510.82 856.5 511.69 C855.37 512.34 855.37 512.34 854.22 513.01 C852 514 852 514 848 514 C847.67 514.99 847.34 515.98 847 517 C843.68 518.71 841.82 519 838 519 C837.67 519.99 837.34 520.98 837 522 C833.68 523.71 831.82 524 828 524 C827.67 524.99 827.34 525.98 827 527 C825.25 527.62 825.25 527.62 823 528 C822.09 528.19 821.18 528.37 820.25 528.56 C819.51 528.71 818.76 528.85 818 529 C817.67 529.99 817.34 530.98 817 532 C811.74 534.63 805.76 535.95 800 537 C800 537.66 800 538.32 800 539 C799.1 539.29 799.1 539.29 798.17 539.59 C797.37 539.85 796.57 540.11 795.75 540.38 C794.57 540.76 794.57 540.76 793.36 541.15 C791.01 541.94 791.01 541.94 788.91 543.04 C787 544 787 544 783.62 544.94 C780 545.87 780 545.87 776.94 547.62 C773.69 549.14 771.54 549.25 768 549 C768 548.34 768 547.68 768 547 C767.01 547.99 766.02 548.98 765 550 C765.66 550.33 766.32 550.66 767 551 C766.01 551.27 765.02 551.54 764 551.81 C761.23 552.6 758.56 553.52 755.88 554.56 C752.93 555.7 750.12 556.47 747 557 C746.01 557.33 745.02 557.66 744 558 C744 558.33 744 558.66 744 559 C742.08 559.19 742.08 559.19 740.12 559.38 C736.65 559.69 736.65 559.69 734 562 C732.01 562.37 730.01 562.71 728 563 C727.34 563.33 726.68 563.66 726 564 C723.33 564.13 720.68 564.04 718 564 C718 564.66 718 565.32 718 566 C715.69 566.68 713.87 567 711.44 566.94 C708.74 566.79 708.74 566.79 706 569 C703.96 569.2 703.96 569.2 701.81 569.12 C700.55 569.08 699.3 569.04 698 569 C698 569.66 698 570.32 698 571 C694.85 572.05 692.61 572.1 689.31 572.06 C688.32 572.05 687.32 572.04 686.3 572.04 C685.16 572.02 685.16 572.02 684 572 C683.67 572.66 683.34 573.32 683 574 C679.7 574 676.4 574 673 574 C673 574.66 673 575.32 673 576 C669.05 577.18 665.43 576.99 661.34 576.84 C658.73 576.82 658.73 576.82 656 579 C652.86 579.2 652.86 579.2 649.31 579.12 C648.13 579.11 646.95 579.09 645.74 579.07 C644.38 579.04 644.38 579.04 643 579 C643 579.66 643 580.32 643 581 C638.55 582.47 633.93 582.02 629.31 581.87 C627.54 581.84 625.77 581.92 624 582 C623.34 582.66 622.68 583.32 622 584 C619.75 584.23 619.75 584.23 616.99 584.2 C616.01 584.19 615.02 584.18 614 584.18 C612.97 584.16 611.94 584.14 610.88 584.12 C609.83 584.12 608.79 584.11 607.72 584.1 C605.15 584.07 602.57 584.04 600 584 C600 584.66 600 585.32 600 586 C596.83 587.06 594.67 587.09 591.34 587.03 C590.24 587.02 589.13 587 588 586.99 C585.67 586.96 583.33 586.92 581 586.87 C579.9 586.86 578.79 586.85 577.66 586.84 C576.64 586.82 575.63 586.81 574.59 586.79 C571.76 586.81 571.76 586.81 569 589 C566.7 589.25 566.7 589.25 563.95 589.25 C562.91 589.26 561.87 589.27 560.79 589.27 C559.65 589.27 558.5 589.26 557.32 589.26 C556.12 589.26 554.91 589.27 553.67 589.27 C550.37 589.28 547.06 589.27 543.76 589.27 C540.3 589.26 536.84 589.27 533.38 589.27 C527.57 589.28 521.77 589.27 515.96 589.26 C509.24 589.25 502.53 589.25 495.81 589.26 C490.05 589.27 484.28 589.27 478.52 589.27 C475.08 589.27 471.63 589.27 468.19 589.27 C464.35 589.28 460.51 589.27 456.68 589.26 C455.53 589.26 454.39 589.27 453.21 589.27 C451.64 589.26 451.64 589.26 450.05 589.25 C449.14 589.25 448.23 589.25 447.3 589.25 C445 589 445 589 442 587 C439.24 586.74 439.24 586.74 436.12 586.84 C434.4 586.86 434.4 586.86 432.64 586.87 C431.44 586.89 430.24 586.92 429 586.94 C426.63 586.97 424.25 587 421.88 587.03 C420.82 587.05 419.77 587.06 418.68 587.08 C416 587 416 587 413 586 C413 585.34 413 584.68 413 584 C412.02 584.02 412.02 584.02 411.01 584.03 C408.05 584.07 405.09 584.1 402.12 584.12 C401.09 584.14 400.06 584.16 399 584.18 C397.52 584.19 397.52 584.19 396.01 584.2 C394.64 584.21 394.64 584.21 393.25 584.23 C391 584 391 584 389 582 C385.71 581.79 385.71 581.79 382 581.94 C375.2 582.1 375.2 582.1 373 581 C373 580.34 373 579.68 373 579 C371.32 579.03 371.32 579.03 369.61 579.07 C368.13 579.09 366.66 579.11 365.19 579.12 C364.45 579.14 363.71 579.16 362.95 579.18 C359.09 579.21 357.29 579.19 354 577 C351.48 576.76 351.48 576.76 348.81 576.88 C347.46 576.9 347.46 576.9 346.08 576.93 C345.39 576.95 344.71 576.98 344 577 C343.67 576.01 343.34 575.02 343 574 C341.74 574.03 341.74 574.03 340.45 574.07 C338.8 574.1 338.8 574.1 337.12 574.12 C336.03 574.15 334.94 574.17 333.82 574.2 C331 574 331 574 329 572 C326.86 571.8 326.86 571.8 324.5 571.94 C320.2 572.1 320.2 572.1 318 571 C318 570.34 318 569.68 318 569 C317.06 569.03 317.06 569.03 316.1 569.07 C314.88 569.1 314.88 569.1 313.62 569.12 C312.81 569.15 312 569.17 311.16 569.2 C309 569 309 569 307 567 C304.31 566.73 301.71 566.91 299 567 C298.67 566.01 298.34 565.02 298 564 C297.06 564.03 297.06 564.03 296.1 564.07 C294.88 564.1 294.88 564.1 293.62 564.12 C292.81 564.15 292 564.17 291.16 564.2 C289 564 289 564 287 562 C284.67 561.96 282.33 561.96 280 562 C279.34 561.67 278.68 561.34 278 561 C278 560.34 278 559.68 278 559 C275.69 559 273.38 559 271 559 C271 558.34 271 557.68 271 557 C269.01 557.07 267.03 557.13 265.04 557.2 C263 557 263 557 260 555 C258.5 554.47 256.97 554 255.44 553.56 C254.55 553.31 253.67 553.05 252.76 552.79 C251.85 552.53 250.94 552.27 250 552 C244.14 550.32 238.55 548.53 233 546 C233 545.34 233 544.68 233 544 C231.02 544 229.04 544 227 544 C227 543.67 227 543.34 227 543 C224.03 542.34 221.06 541.68 218 541 C218 540.34 218 539.68 218 539 C217.28 538.88 216.56 538.75 215.81 538.62 C210.62 537.47 205.87 535.09 201 533 C199.34 532.33 197.67 531.66 196 531 C196 530.34 196 529.68 196 529 C194.82 529.06 194.82 529.06 193.62 529.12 C191 529 191 529 189 527 C188.01 526.67 187.02 526.34 186 526 C186 525.34 186 524.68 186 524 C184.82 524.06 184.82 524.06 183.62 524.12 C181 524 181 524 179 522 C178.01 521.67 177.02 521.34 176 521 C176 520.34 176 519.68 176 519 C174.82 519.06 174.82 519.06 173.62 519.12 C171 519 171 519 169 517 C168.01 516.67 167.02 516.34 166 516 C166 515.34 166 514.68 166 514 C164.95 513.85 164.95 513.85 163.88 513.69 C159.63 512.67 156.1 511.1 153 508 C152.32 507.84 151.64 507.67 150.94 507.5 C150.3 507.34 149.66 507.17 149 507 C148.67 506.34 148.34 505.68 148 505 C147.22 504.69 146.43 504.38 145.62 504.06 C143 503 143 503 141.57 501.52 C139.8 499.81 138.52 499.33 136.19 498.62 C131.93 497.15 129.36 494.97 126 492 C125.01 491.67 124.02 491.34 123 491 C121.77 489.48 120.54 487.96 119.33 486.42 C117.52 484.49 115.45 483.93 113 483 C112.69 482.32 112.38 481.64 112.06 480.94 C111.71 480.3 111.36 479.66 111 479 C110.07 478.86 109.14 478.71 108.19 478.56 C104.05 477.83 102.69 476.14 100 473 C99.01 471.51 99.01 471.51 98 470 C97.24 469.71 96.47 469.42 95.69 469.12 C92.29 467.7 90.51 465.74 88 463.06 C84.85 459.72 82.02 457.22 78 455 C77.01 454.34 76.02 453.68 75 453 C75 452.34 75 451.68 75 451 C74.01 450.67 73.02 450.34 72 450 C72 449.34 72 448.68 72 448 C71.34 448 70.68 448 70 448 C70 447.34 70 446.68 70 446 C69.01 445.67 68.02 445.34 67 445 C67 444.34 67 443.68 67 443 C66.1 442.6 66.1 442.6 65.19 442.19 C63 441 61.59 439.9 60 438 C60 437.34 60 436.68 60 436 C59.01 435.67 58.02 435.34 57 435 C57 434.34 57 433.68 57 433 C56.34 433 55.68 433 55 433 C52.81 430.52 50.98 427.97 49.21 425.17 C46.89 421.84 44.37 419.24 41.44 416.44 C37.98 413.13 35.35 410.17 33 406 C31.88 404.48 30.73 402.98 29.56 401.5 C28.95 400.73 28.34 399.95 27.71 399.15 C26.86 398.09 26.86 398.09 26 397 C24.86 395.55 24.86 395.55 23.69 394.06 C22.02 391.95 22.02 391.95 20 390 C19.75 389.3 19.5 388.6 19.25 387.88 C17.74 384.4 15.63 381.8 13.24 378.87 C12 377 12 377 12 374 C11.34 374 10.68 374 10 374 C9.88 373.36 9.75 372.72 9.62 372.06 C9.42 371.38 9.21 370.7 9 370 C8.34 369.67 7.68 369.34 7 369 C3.61 363.59 0.92 358.09 -1 352 C-1.66 351.67 -2.32 351.34 -3 351 C-3.88 348.71 -4.53 346.39 -5.22 344.03 C-5.81 341.81 -5.81 341.81 -8 341 C-8.88 338.71 -9.53 336.39 -10.22 334.03 C-10.81 331.81 -10.81 331.81 -13 331 C-16.46 324.9 -18.49 317.93 -20.75 311.33 C-21.94 307.98 -21.94 307.98 -23.61 304.85 C-25.44 301.11 -25.64 298.12 -26 294 C-26.66 294 -27.32 294 -28 294 C-28.19 293.11 -28.39 292.22 -28.59 291.3 C-28.85 290.13 -29.11 288.96 -29.38 287.75 C-29.63 286.59 -29.89 285.43 -30.15 284.23 C-30.84 281.15 -30.84 281.15 -31.99 279.07 C-33.04 276.93 -33.55 275.03 -34.04 272.71 C-34.2 271.91 -34.37 271.12 -34.55 270.3 C-34.72 269.48 -34.89 268.66 -35.06 267.81 C-35.74 262.48 -35.74 262.48 -38 258 C-38.27 256.58 -38.49 255.14 -38.68 253.7 C-38.81 252.83 -38.93 251.95 -39.06 251.05 C-39.31 249.2 -39.56 247.35 -39.81 245.5 C-40.44 241.02 -41.2 237.18 -43 233 C-43.38 230.46 -43.38 230.46 -43.56 227.94 C-43.82 224.5 -43.82 224.5 -44.5 221.13 C-45.49 216.92 -45.47 212.53 -45.72 208.21 C-45.88 204.99 -45.88 204.99 -47 202 C-47.48 197.89 -47.75 193.75 -48.06 189.62 C-48.15 188.51 -48.24 187.39 -48.34 186.24 C-48.87 179.36 -49.07 172.56 -48.94 165.66 C-48.87 162.89 -48.87 162.89 -50 160 C-50.09 157.2 -50.12 154.42 -50.1 151.61 C-50.1 150.8 -50.09 149.98 -50.09 149.14 C-50.09 146.53 -50.08 143.92 -50.06 141.31 C-50.06 139.54 -50.05 137.77 -50.05 136.01 C-50.04 131.67 -50.02 127.34 -50 123 C-49.67 123 -49.34 123 -49 123 C-49.01 122.38 -49.02 121.76 -49.04 121.12 C-49.12 113.02 -48.6 105.01 -48 96.94 C-47.81 94.34 -47.62 91.75 -47.44 89.15 C-47.35 88.02 -47.27 86.88 -47.18 85.71 C-47.08 84.15 -47 82.57 -47 81 C-47 79.68 -47 78.36 -47 77 C-46.34 77 -45.68 77 -45 77 C-45 72.38 -45 67.76 -45 63 C-44.34 63 -43.68 63 -43 63 C-43.28 61.79 -43.28 61.79 -43.56 60.56 C-44.39 53.85 -43.03 47.53 -41.3 41.04 C-40.96 38.74 -41.3 37.2 -42 35 C-40.98 34.75 -40.98 34.75 -39.94 34.5 C-37.04 33.02 -36.06 32.09 -34.05 29.65 C-29.56 24.4 -24.7 19.55 -19.81 14.68 C-18.24 13.11 -16.67 11.54 -15.1 9.96 C-14.09 8.96 -13.08 7.95 -12.08 6.95 C-11.17 6.04 -10.27 5.14 -9.34 4.21 C-5.97 1.03 -4.74 0 0 0 Z M872 498 C871.67 498.66 871.34 499.32 871 500 C871.99 499.67 872.98 499.34 874 499 C873.34 498.67 872.68 498.34 872 498 Z M863 502 C863 502.66 863 503.32 863 504 C862.01 504.49 862.01 504.49 861 505 C861.99 505 862.98 505 864 505 C863.67 504.01 863.34 503.02 863 502 Z M835 518 C835 518.66 835 519.32 835 520 C835.66 519.67 836.32 519.34 837 519 C836.34 518.67 835.68 518.34 835 518 Z M815 528 C815 528.66 815 529.32 815 530 C815.66 529.67 816.32 529.34 817 529 C816.34 528.67 815.68 528.34 815 528 Z M803 533 C803 533.66 803 534.32 803 535 C803.66 534.67 804.32 534.34 805 534 C804.34 533.67 803.68 533.34 803 533 Z M219 539 C223 540 223 540 223 540 Z M790 539 C794 540 794 540 794 540 Z M778 543 C778 543.66 778 544.32 778 545 C778.66 544.67 779.32 544.34 780 544 C779.34 543.67 778.68 543.34 778 543 Z M247 549 C251 550 251 550 251 550 Z M750 553 C750 553.66 750 554.32 750 555 C750.66 554.67 751.32 554.34 752 554 C751.34 553.67 750.68 553.34 750 553 Z M262 554 C262 554.33 262 554.66 262 555 C263.98 555 265.96 555 268 555 C268 554.67 268 554.34 268 554 C266.02 554 264.04 554 262 554 Z M733 558 C733 558.66 733 559.32 733 560 C733.66 559.67 734.32 559.34 735 559 C734.34 558.67 733.68 558.34 733 558 Z M715 563 C715 563.66 715 564.32 715 565 C715.66 564.67 716.32 564.34 717 564 C716.34 563.67 715.68 563.34 715 563 Z M695 568 C695 568.66 695 569.32 695 570 C695.66 569.67 696.32 569.34 697 569 C696.34 568.67 695.68 568.34 695 568 Z M670 573 C670 573.66 670 574.32 670 575 C670.66 574.67 671.32 574.34 672 574 C671.34 573.67 670.68 573.34 670 573 Z M640 578 C640 578.66 640 579.32 640 580 C640.66 579.67 641.32 579.34 642 579 C641.34 578.67 640.68 578.34 640 578 Z " fill="#D99429" transform="translate(197,605)"/>
<path d="M0 0 C1.29 -0.01 2.57 -0.01 3.9 -0.02 C5.32 -0.02 6.75 -0.03 8.17 -0.03 C9.67 -0.04 11.18 -0.04 12.68 -0.05 C17.61 -0.07 22.54 -0.08 27.47 -0.09 C29.17 -0.1 30.87 -0.1 32.57 -0.1 C40.55 -0.12 48.54 -0.14 56.53 -0.15 C65.74 -0.15 74.95 -0.18 84.15 -0.22 C91.28 -0.25 98.41 -0.27 105.53 -0.27 C109.78 -0.27 114.03 -0.28 118.28 -0.31 C122.29 -0.33 126.29 -0.33 130.3 -0.32 C131.76 -0.32 133.22 -0.33 134.69 -0.34 C142.89 -0.42 150.59 -0.33 157.74 4.15 C160.13 6.63 162.02 9.16 163.74 12.15 C164.11 12.76 164.48 13.38 164.86 14.01 C167.11 19.48 166.84 26.43 164.64 31.86 C161.17 37.44 157.25 40.64 150.98 42.73 C147.82 43.32 144.77 43.26 141.57 43.24 C140.89 43.24 140.2 43.24 139.5 43.24 C137.33 43.23 135.16 43.22 132.99 43.21 C131.51 43.2 130.04 43.2 128.56 43.2 C124.96 43.18 121.35 43.17 117.74 43.15 C118.77 44.4 118.77 44.4 119.82 45.67 C139.4 69.72 147.29 100.86 144.52 131.56 C141.95 153.02 134.57 174.04 119.74 190.15 C118.97 191 118.2 191.85 117.4 192.73 C104.7 206.11 88.85 213.64 70.36 214.46 C51.26 213.81 33.28 204.1 20.18 190.49 C-0.41 166.35 -5.57 135.95 -4.26 105.15 C-2.62 85.08 6.26 58.75 21.74 45.15 C19.02 43.79 16.88 44.04 13.84 44.04 C12.64 44.03 11.44 44.01 10.2 44 C7.68 43.97 5.17 43.97 2.65 43.98 C-6.21 43.83 -12.81 42.04 -20.26 37.15 C-24.5 32.7 -25.97 27.21 -26.26 21.15 C-25.34 14.61 -23.08 9.64 -18.26 5.15 C-12.24 1.42 -7.07 0.03 0 0 Z " fill="#815321" transform="translate(793.2601623535156,446.8528289794922)"/>
<path d="M0 0 C1.29 -0.01 2.57 -0.01 3.9 -0.02 C5.32 -0.02 6.75 -0.03 8.17 -0.03 C9.67 -0.04 11.18 -0.04 12.68 -0.05 C17.61 -0.07 22.54 -0.08 27.47 -0.09 C29.17 -0.1 30.87 -0.1 32.57 -0.1 C40.55 -0.12 48.54 -0.14 56.53 -0.15 C65.74 -0.15 74.95 -0.18 84.15 -0.22 C91.28 -0.25 98.41 -0.27 105.53 -0.27 C109.78 -0.27 114.03 -0.28 118.28 -0.31 C122.29 -0.33 126.29 -0.33 130.3 -0.32 C131.76 -0.32 133.22 -0.33 134.69 -0.34 C142.89 -0.42 150.59 -0.33 157.74 4.15 C160.13 6.63 162.02 9.16 163.74 12.15 C164.11 12.76 164.48 13.38 164.86 14.01 C167.11 19.48 166.84 26.43 164.64 31.86 C161.17 37.44 157.25 40.64 150.98 42.73 C147.82 43.32 144.77 43.26 141.57 43.24 C140.89 43.24 140.2 43.24 139.5 43.24 C137.33 43.23 135.16 43.22 132.99 43.21 C131.51 43.2 130.04 43.2 128.56 43.2 C124.96 43.18 121.35 43.17 117.74 43.15 C118.77 44.4 118.77 44.4 119.82 45.67 C139.4 69.72 147.29 100.86 144.52 131.56 C141.95 153.02 134.57 174.04 119.74 190.15 C118.97 191 118.2 191.85 117.4 192.73 C104.7 206.11 88.85 213.64 70.36 214.46 C51.26 213.81 33.28 204.1 20.18 190.49 C-0.41 166.35 -5.57 135.95 -4.26 105.15 C-2.62 85.08 6.26 58.75 21.74 45.15 C19.02 43.79 16.88 44.04 13.84 44.04 C12.64 44.03 11.44 44.01 10.2 44 C7.68 43.97 5.17 43.97 2.65 43.98 C-6.21 43.83 -12.81 42.04 -20.26 37.15 C-24.5 32.7 -25.97 27.21 -26.26 21.15 C-25.34 14.61 -23.08 9.64 -18.26 5.15 C-12.24 1.42 -7.07 0.03 0 0 Z " fill="#815321" transform="translate(473.2601623535156,446.8528289794922)"/>
<path d="M0 0 C0.99 0.5 0.99 0.5 2 1 C2.55 0.86 3.09 0.73 3.66 0.59 C12.73 -1.68 22.99 -0.7 31.36 3.3 C35.69 6.08 39.46 9.49 42 14 C41.73 16.55 41.25 17.74 39.47 19.61 C38.82 20.13 38.17 20.65 37.51 21.19 C32.71 25.2 28.32 29.55 23.92 33.98 C22.6 35.31 22.6 35.31 21.25 36.66 C18.82 39.08 16.4 41.51 13.98 43.95 C11.36 46.57 8.74 49.2 6.12 51.83 C1.59 56.37 -2.95 60.92 -7.48 65.47 C-14.64 72.65 -21.81 79.84 -28.99 87.02 C-31.44 89.48 -33.9 91.94 -36.35 94.4 C-36.97 95.01 -37.58 95.63 -38.21 96.26 C-45.19 103.25 -52.16 110.23 -59.13 117.22 C-59.77 117.86 -60.41 118.5 -61.06 119.16 C-71.4 129.51 -81.73 139.87 -92.06 150.24 C-102.67 160.88 -113.29 171.52 -123.92 182.16 C-130.47 188.72 -137.01 195.28 -143.55 201.85 C-148.03 206.34 -152.51 210.84 -157 215.32 C-159.59 217.91 -162.18 220.5 -164.76 223.1 C-167.55 225.92 -170.36 228.72 -173.17 231.52 C-174.39 232.76 -174.39 232.76 -175.64 234.02 C-181.1 239.44 -185.87 243.33 -193.85 244.06 C-199.31 243.9 -203.7 242.07 -207.88 238.62 C-212.25 233.22 -214.16 229 -214 222 C-212.27 211.14 -203.17 204.02 -195.74 196.62 C-194.94 195.82 -194.14 195.02 -193.31 194.19 C-190.63 191.51 -187.96 188.84 -185.28 186.16 C-183.35 184.24 -181.43 182.31 -179.5 180.39 C-175.36 176.25 -171.22 172.11 -167.08 167.98 C-161.09 162 -155.11 156.01 -149.12 150.03 C-139.4 140.31 -129.68 130.59 -119.95 120.88 C-110.52 111.45 -101.09 102.03 -91.66 92.6 C-91.08 92.02 -90.49 91.44 -89.9 90.84 C-86.98 87.93 -84.06 85.01 -81.14 82.09 C-58.64 59.6 -36.13 37.1 -13.61 14.61 C-12.93 13.92 -12.24 13.24 -11.53 12.53 C-10.91 11.91 -10.28 11.28 -9.64 10.64 C-8.32 9.32 -7 7.98 -5.7 6.63 C-4 5 -4 5 -1 3 C-0.67 2.01 -0.34 1.02 0 0 Z " fill="#C88E17" transform="translate(434,272)"/>
<path d="M0 0 C21.43 9.89 46.43 14.48 70 13 C70.72 12.96 71.44 12.91 72.18 12.87 C93.45 11.5 113.81 6.45 132.99 -2.87 C141.13 -6.82 147.24 -9.48 156.19 -6.62 C162.6 -3.76 165.37 1.34 168.14 7.55 C170.08 13.07 169.42 18.76 167.14 24.07 C157.98 39.65 130.74 45.72 114.55 50.11 C110.39 51.18 106.2 52.12 102 53 C101.23 53.17 100.46 53.33 99.66 53.5 C75.61 58.4 47.98 58.1 24 53 C23.19 52.83 22.39 52.67 21.56 52.5 C4.15 48.81 -12.73 43.02 -28.56 34.88 C-29.73 34.28 -29.73 34.28 -30.92 33.68 C-36.82 30.51 -41.63 26.51 -44 20 C-45.1 11.78 -43.62 5.84 -38.71 -0.72 C-27.34 -13.65 -12.83 -5.95 0 0 Z " fill="#815321" transform="translate(641,775)"/>
<path d="M0 0 C1.29 -0.01 2.57 -0.01 3.9 -0.02 C5.32 -0.02 6.75 -0.03 8.17 -0.03 C9.67 -0.04 11.18 -0.04 12.68 -0.05 C17.61 -0.07 22.54 -0.08 27.47 -0.09 C29.17 -0.1 30.87 -0.1 32.57 -0.1 C40.55 -0.12 48.54 -0.14 56.53 -0.15 C65.74 -0.15 74.95 -0.18 84.15 -0.22 C91.28 -0.25 98.41 -0.27 105.53 -0.27 C109.78 -0.27 114.03 -0.28 118.28 -0.31 C122.29 -0.33 126.29 -0.33 130.3 -0.32 C131.76 -0.32 133.22 -0.33 134.69 -0.34 C142.89 -0.42 150.59 -0.33 157.74 4.15 C160.13 6.63 162.02 9.16 163.74 12.15 C164.11 12.76 164.48 13.38 164.86 14.01 C167.11 19.48 166.84 26.43 164.64 31.86 C161.18 37.42 157.22 40.76 150.89 42.72 C145.81 43.73 140.52 43.55 135.36 43.7 C134.67 43.72 133.98 43.74 133.27 43.77 C114.46 44.32 95.65 44.3 76.83 44.28 C72.81 44.27 68.8 44.27 64.78 44.28 C53.2 44.29 41.61 44.27 30.03 44.18 C26.59 44.16 23.15 44.14 19.71 44.14 C15.88 44.13 12.04 44.1 8.21 44.04 C6.2 44.02 4.19 44.02 2.18 44.02 C-6.47 43.84 -12.97 41.9 -20.26 37.15 C-24.5 32.7 -25.97 27.21 -26.26 21.15 C-25.34 14.61 -23.08 9.64 -18.26 5.15 C-12.24 1.42 -7.07 0.03 0 0 Z " fill="#613C18" transform="translate(793.2601623535156,446.8528289794922)"/>
<path d="M0 0 C1.29 -0.01 2.57 -0.01 3.9 -0.02 C5.32 -0.02 6.75 -0.03 8.17 -0.03 C9.67 -0.04 11.18 -0.04 12.68 -0.05 C17.61 -0.07 22.54 -0.08 27.47 -0.09 C29.17 -0.1 30.87 -0.1 32.57 -0.1 C40.55 -0.12 48.54 -0.14 56.53 -0.15 C65.74 -0.15 74.95 -0.18 84.15 -0.22 C91.28 -0.25 98.41 -0.27 105.53 -0.27 C109.78 -0.27 114.03 -0.28 118.28 -0.31 C122.29 -0.33 126.29 -0.33 130.3 -0.32 C131.76 -0.32 133.22 -0.33 134.69 -0.34 C142.89 -0.42 150.59 -0.33 157.74 4.15 C160.13 6.63 162.02 9.16 163.74 12.15 C164.11 12.76 164.48 13.38 164.86 14.01 C167.11 19.48 166.84 26.43 164.64 31.86 C161.18 37.42 157.22 40.76 150.89 42.72 C145.81 43.73 140.52 43.55 135.36 43.7 C134.67 43.72 133.98 43.74 133.27 43.77 C114.46 44.32 95.65 44.3 76.83 44.28 C72.81 44.27 68.8 44.27 64.78 44.28 C53.2 44.29 41.61 44.27 30.03 44.18 C26.59 44.16 23.15 44.14 19.71 44.14 C15.88 44.13 12.04 44.1 8.21 44.04 C6.2 44.02 4.19 44.02 2.18 44.02 C-6.47 43.84 -12.97 41.9 -20.26 37.15 C-24.5 32.7 -25.97 27.21 -26.26 21.15 C-25.34 14.61 -23.08 9.64 -18.26 5.15 C-12.24 1.42 -7.07 0.03 0 0 Z " fill="#613C18" transform="translate(473.2601623535156,446.8528289794922)"/>
<path d="M0 0 C1.1 -0.01 2.2 -0.03 3.33 -0.04 C5.11 -0.05 5.11 -0.05 6.93 -0.06 C8.15 -0.07 9.37 -0.08 10.63 -0.09 C13.22 -0.1 15.81 -0.11 18.4 -0.12 C22.35 -0.14 26.3 -0.18 30.25 -0.22 C32.77 -0.23 35.29 -0.24 37.8 -0.25 C39.57 -0.28 39.57 -0.28 41.38 -0.3 C49.14 -0.28 53.69 0.61 59.56 5.92 C64.08 11.45 66.09 15.6 65.87 22.84 C65.16 29.69 62.39 33.97 57.54 38.73 C53.57 41.73 49.82 42.43 44.93 42.47 C43.24 42.49 43.24 42.49 41.53 42.51 C40.32 42.51 39.12 42.51 37.88 42.51 C36.64 42.52 35.4 42.53 34.11 42.53 C31.49 42.54 28.86 42.55 26.23 42.55 C23.54 42.55 20.85 42.56 18.16 42.59 C14.28 42.63 10.39 42.64 6.51 42.64 C5.31 42.65 4.11 42.67 2.87 42.68 C-4.93 42.64 -8.54 41.83 -14.2 36.43 C-19.05 30.66 -20.88 26.36 -20.67 18.73 C-19.8 11.41 -15.74 7.13 -10.27 2.52 C-6.91 0.14 -4 0.04 0 0 Z " fill="#DA9429" transform="translate(681.3701171875,874.822998046875)"/>
<path d="M0 0 C0.67 1.79 0.67 1.79 1 4 C-0.05 5.68 -0.05 5.68 -1.75 7.37 C-2.39 8.02 -3.02 8.67 -3.68 9.34 C-4.4 10.04 -5.13 10.75 -5.87 11.48 C-7 12.62 -7 12.62 -8.15 13.78 C-10.72 16.36 -13.3 18.91 -15.87 21.47 C-17.72 23.32 -19.57 25.17 -21.41 27.02 C-25.44 31.05 -29.48 35.08 -33.52 39.1 C-39.53 45.08 -45.53 51.07 -51.52 57.07 C-61.6 67.16 -71.7 77.23 -81.8 87.3 C-91.81 97.27 -101.81 107.25 -111.8 117.24 C-112.43 117.86 -113.05 118.48 -113.69 119.12 C-116.84 122.27 -119.99 125.42 -123.14 128.57 C-145.49 150.91 -167.85 173.23 -190.22 195.54 C-211.95 217.22 -233.67 238.9 -255.39 260.59 C-256.06 261.26 -256.73 261.92 -257.41 262.61 C-272.03 277.21 -286.65 291.8 -301.26 306.4 C-305.14 310.27 -309.01 314.14 -312.88 318.01 C-316.07 321.19 -319.26 324.38 -322.45 327.56 C-337.46 342.56 -352.48 357.55 -367.5 372.54 C-376.92 381.94 -386.34 391.34 -395.76 400.74 C-401.73 406.7 -407.69 412.66 -413.67 418.61 C-418.12 423.05 -422.56 427.49 -427.01 431.93 C-428.81 433.73 -430.62 435.53 -432.43 437.33 C-434.87 439.77 -437.31 442.21 -439.75 444.65 C-440.47 445.36 -441.18 446.06 -441.92 446.8 C-442.89 447.77 -442.89 447.77 -443.88 448.76 C-444.72 449.6 -444.72 449.6 -445.57 450.45 C-447.21 452.15 -447.21 452.15 -449 455 C-449.67 452.72 -449.67 452.72 -450 450 C-448.94 448.19 -448.94 448.19 -447.24 446.49 C-446.6 445.84 -445.95 445.18 -445.29 444.5 C-444.57 443.8 -443.84 443.09 -443.1 442.36 C-442.34 441.59 -441.58 440.83 -440.8 440.04 C-438.22 437.45 -435.63 434.88 -433.04 432.31 C-431.18 430.46 -429.32 428.6 -427.47 426.73 C-423.42 422.67 -419.37 418.63 -415.3 414.59 C-409.26 408.58 -403.23 402.55 -397.2 396.52 C-387.07 386.38 -376.92 376.25 -366.77 366.13 C-356.71 356.11 -346.66 346.08 -336.61 336.04 C-335.99 335.42 -335.37 334.8 -334.72 334.15 C-331.55 330.99 -328.39 327.82 -325.22 324.65 C-302.76 302.21 -280.29 279.78 -257.81 257.36 C-235.97 235.58 -214.14 213.79 -192.32 191.99 C-191.64 191.31 -190.97 190.64 -190.28 189.95 C-183.53 183.21 -176.77 176.46 -170.02 169.72 C-156.26 155.97 -142.51 142.23 -128.75 128.49 C-128.11 127.86 -127.48 127.23 -126.83 126.58 C-84.57 84.37 -42.29 42.18 0 0 Z " fill="#E9B120" transform="translate(475,90)"/>
<path d="M0 0 C0.99 0.5 0.99 0.5 2 1 C1.36 1.64 1.36 1.64 0.71 2.29 C-24.55 27.48 -49.81 52.68 -75.05 77.89 C-78.08 80.92 -81.11 83.95 -84.14 86.97 C-84.74 87.58 -85.35 88.18 -85.97 88.8 C-95.74 98.56 -105.51 108.31 -115.29 118.06 C-125.33 128.07 -135.35 138.08 -145.37 148.09 C-151.56 154.27 -157.75 160.45 -163.94 166.62 C-168.19 170.85 -172.43 175.08 -176.67 179.33 C-179.11 181.77 -181.56 184.22 -184.01 186.65 C-186.67 189.3 -189.32 191.95 -191.97 194.61 C-192.75 195.38 -193.53 196.15 -194.33 196.94 C-200.23 202.9 -203.45 207.99 -204.06 216.47 C-203.93 221.84 -202.07 225.59 -198.88 229.81 C-194.4 233.21 -190.11 235.15 -184.41 234.88 C-174.47 233.2 -168.85 227.14 -161.98 220.21 C-160.64 218.87 -160.64 218.87 -159.27 217.49 C-156.78 215.01 -154.31 212.52 -151.83 210.04 C-149.16 207.35 -146.48 204.67 -143.8 201.99 C-139.16 197.35 -134.53 192.7 -129.9 188.05 C-123.2 181.33 -116.5 174.61 -109.79 167.89 C-98.9 156.99 -88.02 146.09 -77.15 135.19 C-76.49 134.53 -75.84 133.88 -75.17 133.21 C-70.55 128.58 -65.93 123.94 -61.31 119.31 C-56.03 114.02 -50.75 108.72 -45.46 103.42 C-44.81 102.77 -44.16 102.12 -43.49 101.45 C-32.65 90.58 -21.8 79.71 -10.96 68.85 C-4.26 62.15 2.43 55.44 9.11 48.73 C13.69 44.14 18.27 39.55 22.85 34.96 C25.49 32.32 28.14 29.67 30.78 27.01 C33.64 24.14 36.5 21.27 39.37 18.41 C40.2 17.56 41.04 16.71 41.91 15.84 C43.06 14.7 43.06 14.7 44.23 13.53 C44.89 12.87 45.55 12.21 46.23 11.52 C48 10 48 10 51 9 C49.57 12.25 47.83 14.42 45.33 16.93 C44.56 17.71 43.79 18.48 43 19.28 C42.15 20.13 41.3 20.97 40.43 21.84 C39.53 22.75 38.63 23.65 37.71 24.58 C35.22 27.09 32.72 29.59 30.22 32.09 C27.52 34.79 24.83 37.49 22.14 40.19 C16.25 46.1 10.36 52 4.47 57.9 C0.79 61.58 -2.89 65.27 -6.57 68.96 C-16.76 79.16 -26.95 89.37 -37.14 99.57 C-37.79 100.22 -38.45 100.87 -39.12 101.54 C-40.44 102.87 -41.77 104.19 -43.09 105.51 C-43.74 106.17 -44.4 106.83 -45.08 107.5 C-45.74 108.16 -46.39 108.82 -47.07 109.5 C-57.72 120.15 -68.36 130.82 -78.99 141.49 C-89.91 152.44 -100.84 163.39 -111.78 174.33 C-117.92 180.47 -124.06 186.62 -130.18 192.77 C-135.4 198.01 -140.62 203.25 -145.86 208.47 C-148.53 211.13 -151.2 213.8 -153.85 216.48 C-156.74 219.38 -159.64 222.27 -162.54 225.16 C-163.79 226.42 -163.79 226.42 -165.06 227.72 C-170.79 233.37 -176.74 238.03 -185.06 238.44 C-192.4 237.62 -197.75 235.37 -203 230 C-206.73 224.91 -207.46 220.12 -207.53 213.91 C-205.99 205.46 -200.7 200.13 -194.81 194.33 C-193.98 193.5 -193.15 192.66 -192.29 191.8 C-189.99 189.49 -187.68 187.2 -185.37 184.91 C-182.88 182.43 -180.39 179.94 -177.91 177.45 C-173.61 173.15 -169.3 168.85 -164.98 164.56 C-158.74 158.35 -152.52 152.14 -146.29 145.92 C-136.19 135.83 -126.08 125.74 -115.97 115.67 C-106.14 105.88 -96.32 96.09 -86.51 86.29 C-85.6 85.39 -85.6 85.39 -84.68 84.46 C-81.64 81.43 -78.6 78.4 -75.57 75.37 C-50.39 50.23 -25.2 25.11 0 0 Z " fill="#DA942A" transform="translate(425,280)"/>
<path d="M0 0 C0 1.33 0 2.67 0 4 C-40.92 4 -81.84 4 -124 4 C-124.33 3.01 -124.66 2.02 -125 1 C-83.75 0.67 -42.5 0.34 0 0 Z " fill="#DDA31D" transform="translate(766,1190)"/>
<path d="M0 0 C0.33 0 0.66 0 1 0 C1 18.48 1 36.96 1 56 C0.67 56 0.34 56 0 56 C-0.09 54.86 -0.09 54.86 -0.18 53.7 C-0.27 52.71 -0.35 51.71 -0.44 50.69 C-0.56 49.21 -0.56 49.21 -0.68 47.7 C-0.92 44.91 -0.92 44.91 -2 42 C-2.09 39.2 -2.12 36.42 -2.1 33.61 C-2.1 32.8 -2.09 31.98 -2.09 31.14 C-2.09 28.53 -2.08 25.92 -2.06 23.31 C-2.06 21.54 -2.05 19.77 -2.05 18.01 C-2.04 13.67 -2.02 9.34 -2 5 C-1.67 5 -1.34 5 -1 5 C-0.67 3.35 -0.34 1.7 0 0 Z " fill="#E5AD21" transform="translate(149,723)"/>
<path d="M0 0 C1.69 1.52 1.69 1.52 3 3 C2.25 3.06 1.51 3.11 0.74 3.17 C-2.63 3.42 -6 3.68 -9.38 3.94 C-11.14 4.07 -11.14 4.07 -12.94 4.2 C-14.62 4.33 -14.62 4.33 -16.34 4.46 C-17.37 4.54 -18.41 4.62 -19.48 4.7 C-21.99 4.85 -21.99 4.85 -24 6 C-26.33 6.04 -28.67 6.04 -31 6 C-30.34 5.01 -29.68 4.02 -29 3 C-28.67 3.33 -28.34 3.66 -28 4 C-28 3.67 -28 3.34 -28 3 C-18.77 0.39 -9.58 -1.22 0 0 Z M-34 6 C-32.68 6.33 -31.36 6.66 -30 7 C-30.33 7.66 -30.66 8.32 -31 9 C-31.99 8.67 -32.98 8.34 -34 8 C-34 7.34 -34 6.68 -34 6 Z " fill="#BD8F1A" transform="translate(510,84)"/>
<path d="M0 0 C0.66 0.33 1.32 0.66 2 1 C1.35 1.59 1.35 1.59 0.69 2.19 C-1.14 4.01 -1.14 4.01 -2.5 6.62 C-4 9 -4 9 -7 10 C-7.33 10.66 -7.66 11.32 -8 12 C-8.33 12.66 -8.66 13.32 -9 14 C-9.99 14.33 -10.98 14.66 -12 15 C-12.33 15.66 -12.66 16.32 -13 17 C-13.33 17.66 -13.66 18.32 -14 19 C-14.99 19.33 -15.98 19.66 -17 20 C-17.33 20.66 -17.66 21.32 -18 22 C-18.33 22.66 -18.66 23.32 -19 24 C-19.99 24.33 -20.98 24.66 -22 25 C-22.33 25.66 -22.66 26.32 -23 27 C-23.33 27.66 -23.66 28.32 -24 29 C-24.99 29.33 -25.98 29.66 -27 30 C-27 30.66 -27 31.32 -27 32 C-27.99 31.67 -28.98 31.34 -30 31 C-20.36 20.3 -10.24 10.13 0 0 Z " fill="#C5901F" transform="translate(535,168)"/>
<path d="M0 0 C29.7 0 59.4 0 90 0 C90 0.33 90 0.66 90 1 C60.3 1 30.6 1 0 1 C0 0.67 0 0.34 0 0 Z " fill="#000000" transform="translate(659,1195)"/>
<path d="M0 0 C0.99 0 1.98 0 3 0 C3 6.6 3 13.2 3 20 C2.01 19.34 1.02 18.68 0 18 C-0.34 16.12 -0.34 16.12 -0.29 13.87 C-0.28 13.06 -0.27 12.26 -0.26 11.43 C-0.24 10.58 -0.21 9.74 -0.19 8.88 C-0.17 8.03 -0.16 7.18 -0.15 6.3 C-0.11 4.2 -0.06 2.1 0 0 Z " fill="#DEA81F" transform="translate(20,550)"/>
<path d="M0 0 C5.29 4.41 10.19 9.08 15 14 C13.68 14.33 12.36 14.66 11 15 C11 14.34 11 13.68 11 13 C10.01 12.67 9.02 12.34 8 12 C8 11.34 8 10.68 8 10 C7.4 9.73 6.8 9.46 6.19 9.19 C3.93 7.96 2.57 7.02 1 5 C0.31 2.31 0.31 2.31 0 0 Z " fill="#BE8A20" transform="translate(256,1038)"/>
<path d="M0 0 C0 0.66 0 1.32 0 2 C-0.93 2.43 -1.86 2.87 -2.81 3.31 C-5.94 4.75 -5.94 4.75 -7.62 6.75 C-8.08 7.16 -8.53 7.58 -9 8 C-11.19 7.69 -11.19 7.69 -13 7 C-13 6.01 -13 5.02 -13 4 C-11.35 4 -9.7 4 -8 4 C-8 3.34 -8 2.68 -8 2 C-4.91 0.24 -3.77 0 0 0 Z " fill="#DBA320" transform="translate(1095,1089)"/>
<path d="M0 0 C0.66 0.33 1.32 0.66 2 1 C2 5.95 2 10.9 2 16 C-1 13 -1 13 -1.07 9.86 C-0.95 8.69 -0.82 7.52 -0.69 6.31 C-0.57 5.13 -0.45 3.95 -0.32 2.74 C-0.16 1.38 -0.16 1.38 0 0 Z " fill="#E7B221" transform="translate(153,813)"/>
<path d="M0 0 C7.92 0 15.84 0 24 0 C24 0.33 24 0.66 24 1 C16.08 1 8.16 1 0 1 C0 0.67 0 0.34 0 0 Z " fill="#000000" transform="translate(769,1192)"/>
<path d="M0 0 C7.92 0 15.84 0 24 0 C24 0.33 24 0.66 24 1 C16.08 1 8.16 1 0 1 C0 0.67 0 0.34 0 0 Z " fill="#000000" transform="translate(615,1192)"/>
<path d="M0 0 C4.62 0 9.24 0 14 0 C14 0.33 14 0.66 14 1 C9.38 1 4.76 1 0 1 C0 0.67 0 0.34 0 0 Z " fill="#000000" transform="translate(798,1190)"/>
<path d="M0 0 C4.62 0 9.24 0 14 0 C14 0.33 14 0.66 14 1 C9.38 1 4.76 1 0 1 C0 0.67 0 0.34 0 0 Z " fill="#000000" transform="translate(821,1187)"/>
<path d="M0 0 C4.29 0 8.58 0 13 0 C13 0.33 13 0.66 13 1 C8.71 1 4.42 1 0 1 C0 0.67 0 0.34 0 0 Z " fill="#000000" transform="translate(596,1190)"/>
<path d="M0 0 C3.96 0 7.92 0 12 0 C12 0.33 12 0.66 12 1 C8.04 1 4.08 1 0 1 C0 0.67 0 0.34 0 0 Z " fill="#000000" transform="translate(574,1187)"/>
<path d="M0 0 C3.3 0 6.6 0 10 0 C10 0.33 10 0.66 10 1 C6.7 1 3.4 1 0 1 C0 0.67 0 0.34 0 0 Z " fill="#000000" transform="translate(856,1182)"/>
<path d="M0 0 C2.97 0 5.94 0 9 0 C9 0.33 9 0.66 9 1 C6.03 1 3.06 1 0 1 C0 0.67 0 0.34 0 0 Z " fill="#000000" transform="translate(560,1185)"/>
<path d="M0 0 C2.64 0 5.28 0 8 0 C8 0.33 8 0.66 8 1 C5.36 1 2.72 1 0 1 C0 0.67 0 0.34 0 0 Z " fill="#000000" transform="translate(119,662)"/>
<path d="M0 0 C2.31 0 4.62 0 7 0 C7 0.33 7 0.66 7 1 C4.69 1 2.38 1 0 1 C0 0.67 0 0.34 0 0 Z " fill="#000000" transform="translate(841,1185)"/>
<path d="M0 0 C2.31 0 4.62 0 7 0 C7 0.33 7 0.66 7 1 C4.69 1 2.38 1 0 1 C0 0.67 0 0.34 0 0 Z " fill="#000000" transform="translate(544,1182)"/>
<path d="M0 0 C2.31 0 4.62 0 7 0 C7 0.33 7 0.66 7 1 C4.69 1 2.38 1 0 1 C0 0.67 0 0.34 0 0 Z " fill="#000000" transform="translate(532,1180)"/>
<path d="M0 0 C2.31 0 4.62 0 7 0 C7 0.33 7 0.66 7 1 C4.69 1 2.38 1 0 1 C0 0.67 0 0.34 0 0 Z " fill="#000000" transform="translate(519,1177)"/>
<path d="M0 0 C0.33 0 0.66 0 1 0 C1 2.31 1 4.62 1 7 C0.67 7 0.34 7 0 7 C0 4.69 0 2.38 0 0 Z " fill="#000000" transform="translate(1255,677)"/>
<path d="M0 0 C0.33 0 0.66 0 1 0 C1 1.98 1 3.96 1 6 C0.67 6 0.34 6 0 6 C0 4.02 0 2.04 0 0 Z " fill="#000000" transform="translate(1255,816)"/>
<path d="M0 0 C1.65 0 3.3 0 5 0 C5 0.33 5 0.66 5 1 C3.35 1 1.7 1 0 1 C0 0.67 0 0.34 0 0 Z " fill="#000000" transform="translate(871,1180)"/>
<path d="M0 0 C1.65 0 3.3 0 5 0 C5 0.33 5 0.66 5 1 C3.35 1 1.7 1 0 1 C0 0.67 0 0.34 0 0 Z " fill="#000000" transform="translate(509,1175)"/>
<path d="M0 0 C1.65 0 3.3 0 5 0 C5 0.33 5 0.66 5 1 C3.35 1 1.7 1 0 1 C0 0.67 0 0.34 0 0 Z " fill="#000000" transform="translate(906,1172)"/>
<path d="M0 0 C1.65 0 3.3 0 5 0 C5 0.33 5 0.66 5 1 C3.35 1 1.7 1 0 1 C0 0.67 0 0.34 0 0 Z " fill="#000000" transform="translate(499,1172)"/>
<path d="M0 0 C1.65 0 3.3 0 5 0 C5 0.33 5 0.66 5 1 C3.35 1 1.7 1 0 1 C0 0.67 0 0.34 0 0 Z " fill="#000000" transform="translate(489,1170)"/>
<path d="M0 0 C1.65 0 3.3 0 5 0 C5 0.33 5 0.66 5 1 C3.35 1 1.7 1 0 1 C0 0.67 0 0.34 0 0 Z " fill="#000000" transform="translate(479,1167)"/>
<path d="M0 0 C1 4 1 4 1 4 Z " fill="#000000" transform="translate(1250,642)"/>
<path d="M0 0 C3 1 3 1 3 1 Z " fill="#000000" transform="translate(896,1175)"/>
<path d="M0 0 C3 1 3 1 3 1 Z " fill="#000000" transform="translate(916,1170)"/>
<path d="M0 0 C3 1 3 1 3 1 Z " fill="#000000" transform="translate(934,1165)"/>
<path d="M0 0 C3 1 3 1 3 1 Z " fill="#000000" transform="translate(471,1165)"/>
<path d="M0 0 C0.99 0.49 0.99 0.49 2 1 C1.01 1.49 1.01 1.49 0 2 C0 1.34 0 0.68 0 0 Z " fill="#F0BA24" transform="translate(1080,1097)"/>
<path d="M0 0 C2 1 2 1 2 1 Z " fill="#000000" transform="translate(944,1162)"/>
<path d="M0 0 C2 1 2 1 2 1 Z " fill="#000000" transform="translate(951,1160)"/>
<path d="M0 0 C2 1 2 1 2 1 Z " fill="#000000" transform="translate(966,1155)"/>
<path d="M0 0 C2 1 2 1 2 1 Z " fill="#000000" transform="translate(979,1150)"/>
<path d="M0 0 C2 1 2 1 2 1 Z " fill="#000000" transform="translate(427,1150)"/>
<path d="M0 0 C2 1 2 1 2 1 Z " fill="#000000" transform="translate(1004,1140)"/>
<path d="M0 0 C2 1 2 1 2 1 Z " fill="#000000" transform="translate(402,1140)"/>
<path d="M0 0 C2 1 2 1 2 1 Z " fill="#000000" transform="translate(380,1130)"/>
<path d="M0 0 C2 1 2 1 2 1 Z " fill="#000000" transform="translate(370,1125)"/>
<path d="M0 0 C2 1 2 1 2 1 Z " fill="#000000" transform="translate(335,1105)"/>
<path d="" fill="#000000" transform="translate(0,0)"/>
<path d="M0 0 C2 1 2 1 2 1 Z " fill="#F0BA24" transform="translate(113,660)"/>
<path d="" fill="#000000" transform="translate(0,0)"/>
<path d="" fill="#000000" transform="translate(0,0)"/>
<path d="" fill="#000000" transform="translate(0,0)"/>
<path d="" fill="#000000" transform="translate(0,0)"/>
<path d="" fill="#F0BA24" transform="translate(0,0)"/>
<path d="" fill="#000000" transform="translate(0,0)"/>
<path d="" fill="#F0BA24" transform="translate(0,0)"/>
<path d="" fill="#000000" transform="translate(0,0)"/>
<path d="" fill="#000000" transform="translate(0,0)"/>
<path d="" fill="#000000" transform="translate(0,0)"/>
<path d="" fill="#000000" transform="translate(0,0)"/>
<path d="" fill="#000000" transform="translate(0,0)"/>
<path d="" fill="#F0BA24" transform="translate(0,0)"/>
<path d="" fill="#825422" transform="translate(0,0)"/>
<path d="" fill="#000000" transform="translate(0,0)"/>
<path d="" fill="#000000" transform="translate(0,0)"/>
<path d="" fill="#000000" transform="translate(0,0)"/>
<path d="" fill="#000000" transform="translate(0,0)"/>
<path d="" fill="#000000" transform="translate(0,0)"/>
<path d="" fill="#000000" transform="translate(0,0)"/>
<path d="" fill="#000000" transform="translate(0,0)"/>
<path d="" fill="#000000" transform="translate(0,0)"/>
<path d="" fill="#000000" transform="translate(0,0)"/>
<path d="" fill="#000000" transform="translate(0,0)"/>
<path d="" fill="#000000" transform="translate(0,0)"/>
<path d="" fill="#000000" transform="translate(0,0)"/>
<path d="" fill="#000000" transform="translate(0,0)"/>
<path d="" fill="#000000" transform="translate(0,0)"/>
<path d="" fill="#000000" transform="translate(0,0)"/>
<path d="" fill="#000000" transform="translate(0,0)"/>
<path d="" fill="#F0BA24" transform="translate(0,0)"/>
<path d="" fill="#825422" transform="translate(0,0)"/>
<path d="" fill="#F0BA24" transform="translate(0,0)"/>
<path d="" fill="#825422" transform="translate(0,0)"/>
<path d="" fill="#F0BA24" transform="translate(0,0)"/>
<path d="" fill="#825422" transform="translate(0,0)"/>
<path d="" fill="#825422" transform="translate(0,0)"/>
<path d="" fill="#000000" transform="translate(0,0)"/>
<path d="" fill="#000000" transform="translate(0,0)"/>
<path d="" fill="#000000" transform="translate(0,0)"/>
<path d="" fill="#000000" transform="translate(0,0)"/>
<path d="" fill="#C88E17" transform="translate(0,0)"/>
<path d="" fill="#F0BA24" transform="translate(0,0)"/>
<path d="" fill="#000000" transform="translate(0,0)"/>
<path d="" fill="#F0BA24" transform="translate(0,0)"/>
<path d="" fill="#F0BA24" transform="translate(0,0)"/>
<path d="" fill="#000000" transform="translate(0,0)"/>
<path d="" fill="#000000" transform="translate(0,0)"/>
<path d="" fill="#000000" transform="translate(0,0)"/>
<path d="" fill="#F0BA24" transform="translate(0,0)"/>
<path d="" fill="#F0BA24" transform="translate(0,0)"/>
<path d="" fill="#F0BA24" transform="translate(0,0)"/>
<path d="" fill="#E0A318" transform="translate(0,0)"/>
<path d="" fill="#F0BA24" transform="translate(0,0)"/>
<path d="" fill="#825422" transform="translate(0,0)"/>
<path d="" fill="#000000" transform="translate(0,0)"/>
</svg>
